<svg width="48" height="24" viewBox="0 0 48 24" fill="none" xmlns="http://www.w3.org/2000/svg">
<path d="M4 11L3 11L3 13L4 13L4 11ZM43 13L44 13L44 11L43 11L43 13ZM4 13L43 13L43 11L4 11L4 13Z" fill="#05AE49"/>
<path d="M37.7071 4.29289L37 3.58579L35.5858 5L36.2929 5.70711L37.7071 4.29289ZM44 12L44.7071 12.7071C45.0976 12.3166 45.0976 11.6834 44.7071 11.2929L44 12ZM36.2929 18.2929L35.5858 19L37 20.4142L37.7071 19.7071L36.2929 18.2929ZM36.2929 5.70711L43.2929 12.7071L44.7071 11.2929L37.7071 4.29289L36.2929 5.70711ZM43.2929 11.2929L36.2929 18.2929L37.7071 19.7071L44.7071 12.7071L43.2929 11.2929Z" fill="#05AE49"/>
</svg>
