<svg width="80" height="80" viewBox="0 0 80 80" fill="none" xmlns="http://www.w3.org/2000/svg">
<path d="M64.7071 16.7071C65.0976 16.3166 65.0976 15.6834 64.7071 15.2929C64.3166 14.9024 63.6834 14.9024 63.2929 15.2929L64.7071 16.7071ZM15.2929 63.2929C14.9024 63.6834 14.9024 64.3166 15.2929 64.7071C15.6834 65.0976 16.3166 65.0976 16.7071 64.7071L15.2929 63.2929ZM63.2929 15.2929L15.2929 63.2929L16.7071 64.7071L64.7071 16.7071L63.2929 15.2929Z" fill="#F0F4EE"/>
<path d="M24 15H23V17H24V15ZM64 16H65C65 15.4477 64.5523 15 64 15V16ZM63 56V57H65V56H63ZM24 17H64V15H24V17ZM63 16V56H65V16H63Z" fill="#F0F4EE"/>
</svg>
