<svg width="24" height="24" viewBox="0 0 24 24" fill="none" xmlns="http://www.w3.org/2000/svg">
<path d="M11.2174 19.9995L11.2174 20.7821L12.7826 20.7821L12.7826 19.9995L11.2174 19.9995ZM12.7826 3.99951L12.7826 3.21691L11.2174 3.21691L11.2174 3.99951L12.7826 3.99951ZM12.7826 19.9995L12.7826 3.99951L11.2174 3.99951L11.2174 19.9995L12.7826 19.9995Z" fill="#292B2E"/>
<path d="M4.44661 9.4471L3.89322 10.0005L5 11.1073L5.55339 10.5539L4.44661 9.4471ZM12 3.00049L12.5534 2.4471C12.2478 2.14147 11.7522 2.14147 11.4466 2.4471L12 3.00049ZM18.4466 10.5539L19 11.1073L20.1068 10.0005L19.5534 9.4471L18.4466 10.5539ZM5.55339 10.5539L12.5534 3.55388L11.4466 2.4471L4.44661 9.4471L5.55339 10.5539ZM11.4466 3.55388L18.4466 10.5539L19.5534 9.4471L12.5534 2.4471L11.4466 3.55388Z" fill="#292B2E"/>
</svg>
