<svg width="46" height="46" viewBox="0 0 46 46" fill="none" xmlns="http://www.w3.org/2000/svg">
<path d="M7.66797 21.75H6.41797V24.25H7.66797V21.75ZM38.3346 24.25H39.5846V21.75H38.3346V24.25ZM7.66797 24.25H38.3346V21.75H7.66797V24.25Z" fill="#05AE49"/>
<path d="M27.7159 8.69912L26.832 7.81524L25.0643 9.58301L25.9481 10.4669L27.7159 8.69912ZM40.2487 22.9997L41.1326 23.8836C41.6207 23.3954 41.6207 22.6039 41.1326 22.1158L40.2487 22.9997ZM25.9481 35.5325L25.0643 36.4163L26.832 38.1841L27.7159 37.3002L25.9481 35.5325ZM25.9481 10.4669L39.3648 23.8836L41.1326 22.1158L27.7159 8.69912L25.9481 10.4669ZM39.3648 22.1158L25.9481 35.5325L27.7159 37.3002L41.1326 23.8836L39.3648 22.1158Z" fill="#05AE49"/>
</svg>
