<svg width="16" height="16" viewBox="0 0 16 16" fill="none" xmlns="http://www.w3.org/2000/svg">
<path d="M13.333 7.25H14.083V8.75H13.333V7.25ZM2.66634 8.75H1.91634V7.25H2.66634V8.75ZM13.333 8.75H2.66634V7.25H13.333V8.75Z" fill="#05AE49"/>
<path d="M6.13666 2.80317L6.66699 2.27284L7.72765 3.3335L7.19732 3.86383L6.13666 2.80317ZM2.00033 8.00016L1.47 8.53049C1.1771 8.2376 1.1771 7.76273 1.47 7.46983L2.00033 8.00016ZM7.19732 12.1365L7.72765 12.6668L6.66699 13.7275L6.13666 13.1972L7.19732 12.1365ZM7.19732 3.86383L2.53066 8.53049L1.47 7.46983L6.13666 2.80317L7.19732 3.86383ZM2.53066 7.46983L7.19732 12.1365L6.13666 13.1972L1.47 8.53049L2.53066 7.46983Z" fill="#05AE49"/>
</svg>
