<svg width="65" height="64" viewBox="0 0 65 64" fill="none" xmlns="http://www.w3.org/2000/svg">
<g clip-path="url(#clip0_711_5279)">
<mask id="mask0_711_5279" style="mask-type:alpha" maskUnits="userSpaceOnUse" x="8" y="8" width="49" height="48">
<path d="M49.3033 15.0294C58.6759 24.402 58.6759 39.598 49.3033 48.9706C39.9307 58.3431 24.7347 58.3431 15.3622 48.9706C5.98958 39.598 5.98958 24.402 15.3622 15.0294C24.7347 5.65686 39.9307 5.65685 49.3033 15.0294Z" fill="black"/>
</mask>
<g mask="url(#mask0_711_5279)">
<path fill-rule="evenodd" clip-rule="evenodd" d="M27.7109 15.4827C28.3436 13.1626 27.8557 11.9662 27.3834 11.4938C26.911 11.0215 25.7145 10.5336 23.3945 11.1663C21.1688 11.7733 18.5025 13.3036 16.0696 15.7365C13.6367 18.1694 12.1065 20.8357 11.4995 23.0614C10.8667 25.3814 11.3547 26.5779 11.827 27.0502C12.2993 27.5225 13.4958 28.0104 15.8158 27.3777C18.0415 26.7707 20.7078 25.2404 23.1407 22.8075C25.5736 20.3746 27.1039 17.7084 27.7109 15.4827ZM25.262 24.9289C30.7294 19.4615 32.6289 12.4967 29.5047 9.37251C26.3805 6.24832 19.4157 8.14781 13.9483 13.6152C8.48098 19.0825 6.58149 26.0473 9.70568 29.1715C12.8299 32.2957 19.7947 30.3962 25.262 24.9289Z" fill="#05AE49"/>
<path fill-rule="evenodd" clip-rule="evenodd" d="M37.9472 18.9543C38.9631 15.1166 38.2983 12.51 36.9288 11.1405C35.5593 9.77099 32.9527 9.10622 29.115 10.1221C25.3615 11.1156 21.021 13.6132 17.1298 17.5045C13.2385 21.3957 10.741 25.7362 9.74741 29.4897C8.73154 33.3274 9.3963 35.9339 10.7658 37.3035C12.1353 38.673 14.7419 39.3377 18.5796 38.3219C22.333 37.3283 26.6736 34.8307 30.5648 30.9395C34.4561 27.0482 36.9536 22.7077 37.9472 18.9543ZM32.6861 33.0608C41.0824 24.6645 43.9316 13.9007 39.0501 9.01918C34.1685 4.13763 23.4047 6.98687 15.0085 15.3831C6.61219 23.7794 3.76295 34.5432 8.6445 39.4248C13.5261 44.3063 24.2899 41.4571 32.6861 33.0608Z" fill="#05AE49"/>
<path fill-rule="evenodd" clip-rule="evenodd" d="M48.2057 22.419C49.001 16.8521 47.6363 11.9487 44.3532 8.66555C41.0701 5.38245 36.1667 4.0178 30.5998 4.81307C25.0318 5.6085 19.0004 8.56257 13.9477 13.6153C8.89492 18.668 5.94086 24.6995 5.14542 30.2675C4.35015 35.8344 5.7148 40.7378 8.99791 44.0209C12.281 47.304 17.1844 48.6686 22.7513 47.8734C28.3193 47.0779 34.3508 44.1239 39.4035 39.0711C44.4562 34.0184 47.4103 27.987 48.2057 22.419ZM41.5248 41.1925C52.4595 30.2578 54.6756 14.7452 46.4746 6.54423C38.2736 -1.65678 22.761 0.559299 11.8263 11.494C0.891653 22.4287 -1.32442 37.9412 6.87659 46.1422C15.0776 54.3432 30.5901 52.1271 41.5248 41.1925Z" fill="#05AE49"/>
</g>
<path fill-rule="evenodd" clip-rule="evenodd" d="M47.182 46.8492C55.383 38.6482 55.383 25.3518 47.182 17.1508C38.981 8.94975 25.6845 8.94975 17.4835 17.1508C9.28247 25.3518 9.28247 38.6482 17.4835 46.8492C25.6845 55.0503 38.981 55.0503 47.182 46.8492ZM49.3033 48.9706C58.6759 39.598 58.6759 24.402 49.3033 15.0294C39.9307 5.65685 24.7347 5.65686 15.3622 15.0294C5.98958 24.402 5.98958 39.598 15.3622 48.9706C24.7347 58.3431 39.9307 58.3431 49.3033 48.9706Z" fill="#05AE49"/>
</g>
<defs>
<clipPath id="clip0_711_5279">
<rect width="64" height="64" fill="white" transform="translate(0.333008)"/>
</clipPath>
</defs>
</svg>
