<svg width="64" height="64" viewBox="0 0 64 64" fill="none" xmlns="http://www.w3.org/2000/svg">
<path d="M13.666 20.333C13.666 18.1239 15.4569 16.333 17.666 16.333H49.666C51.8752 16.333 53.666 18.1239 53.666 20.333V49.6663C53.666 51.8755 51.8752 53.6663 49.666 53.6663H21.666C17.2477 53.6663 13.666 50.0846 13.666 45.6663V20.333Z" fill="#F0F4EE"/>
<path fill-rule="evenodd" clip-rule="evenodd" d="M49.666 18.9997H17.666C16.9296 18.9997 16.3327 19.5966 16.3327 20.333V45.6663C16.3327 48.6119 18.7205 50.9997 21.666 50.9997H49.666C50.4024 50.9997 50.9994 50.4027 50.9994 49.6663V20.333C50.9994 19.5966 50.4024 18.9997 49.666 18.9997ZM17.666 16.333C15.4569 16.333 13.666 18.1239 13.666 20.333V45.6663C13.666 50.0846 17.2477 53.6663 21.666 53.6663H49.666C51.8752 53.6663 53.666 51.8755 53.666 49.6663V20.333C53.666 18.1239 51.8752 16.333 49.666 16.333H17.666Z" fill="#05AE49"/>
<path d="M11 19C11 14.5817 14.5817 11 19 11C23.4183 11 27 14.5817 27 19V45.6667C27 50.0849 23.4183 53.6667 19 53.6667C14.5817 53.6667 11 50.0849 11 45.6667V19Z" fill="#F0F4EE"/>
<path fill-rule="evenodd" clip-rule="evenodd" d="M24.3333 45.6667V19C24.3333 16.0545 21.9455 13.6667 19 13.6667C16.0545 13.6667 13.6667 16.0545 13.6667 19V45.6667C13.6667 48.6122 16.0545 51 19 51C21.9455 51 24.3333 48.6122 24.3333 45.6667ZM19 11C14.5817 11 11 14.5817 11 19V45.6667C11 50.0849 14.5817 53.6667 19 53.6667C23.4183 53.6667 27 50.0849 27 45.6667V19C27 14.5817 23.4183 11 19 11Z" fill="#05AE49"/>
<path fill-rule="evenodd" clip-rule="evenodd" d="M13.6667 45.666C13.6667 48.6115 16.0545 50.9993 19 50.9993C21.9455 50.9993 24.3333 48.6115 24.3333 45.666C24.3333 42.7205 21.9455 40.3327 19 40.3327C16.0545 40.3327 13.6667 42.7205 13.6667 45.666ZM19 37.666C14.5817 37.666 11 41.2477 11 45.666C11 50.0843 14.5817 53.666 19 53.666C23.4183 53.666 27 50.0843 27 45.666C27 41.2477 23.4183 37.666 19 37.666Z" fill="#05AE49"/>
<path d="M17.3994 45.6664C17.3994 44.7828 18.1158 44.0664 18.9994 44.0664C19.8831 44.0664 20.5994 44.7828 20.5994 45.6664C20.5994 46.5501 19.8831 47.2664 18.9994 47.2664C18.1158 47.2664 17.3994 46.5501 17.3994 45.6664Z" fill="#05AE49"/>
<path d="M32.333 24.6667C32.333 23.7462 33.0792 23 33.9997 23C34.9201 23 35.6663 23.7462 35.6663 24.6667C35.6663 25.5871 34.9201 26.3333 33.9997 26.3333C33.0792 26.3333 32.333 25.5871 32.333 24.6667Z" fill="#05AE49"/>
<path d="M43 24.6667C43 23.7462 43.7462 23 44.6667 23C45.5871 23 46.3333 23.7462 46.3333 24.6667C46.3333 25.5871 45.5871 26.3333 44.6667 26.3333C43.7462 26.3333 43 25.5871 43 24.6667Z" fill="#05AE49"/>
<path d="M32.333 33.9997C32.333 33.0792 33.0792 32.333 33.9997 32.333C34.9201 32.333 35.6663 33.0792 35.6663 33.9997C35.6663 34.9201 34.9201 35.6663 33.9997 35.6663C33.0792 35.6663 32.333 34.9201 32.333 33.9997Z" fill="#05AE49"/>
<path d="M43 33.9997C43 33.0792 43.7462 32.333 44.6667 32.333C45.5871 32.333 46.3333 33.0792 46.3333 33.9997C46.3333 34.9201 45.5871 35.6663 44.6667 35.6663C43.7462 35.6663 43 34.9201 43 33.9997Z" fill="#05AE49"/>
<path d="M32.333 43.3327C32.333 42.4122 33.0792 41.666 33.9997 41.666C34.9201 41.666 35.6663 42.4122 35.6663 43.3327C35.6663 44.2532 34.9201 44.9993 33.9997 44.9993C33.0792 44.9993 32.333 44.2532 32.333 43.3327Z" fill="#05AE49"/>
<path d="M43 43.3327C43 42.4122 43.7462 41.666 44.6667 41.666C45.5871 41.666 46.3333 42.4122 46.3333 43.3327C46.3333 44.2532 45.5871 44.9993 44.6667 44.9993C43.7462 44.9993 43 44.2532 43 43.3327Z" fill="#05AE49"/>
</svg>
