<svg width="65" height="64" viewBox="0 0 65 64" fill="none" xmlns="http://www.w3.org/2000/svg">
<path d="M17.333 34.4C17.333 33.5163 18.0494 32.8 18.933 32.8H24.733C25.6167 32.8 26.333 33.5163 26.333 34.4C26.333 35.2837 25.6167 36 24.733 36H18.933C18.0494 36 17.333 35.2837 17.333 34.4ZM17.333 28C17.333 27.1163 18.0494 26.4 18.933 26.4H30.733C31.6167 26.4 32.333 27.1163 32.333 28C32.333 28.8837 31.6167 29.6 30.733 29.6H18.933C18.0494 29.6 17.333 28.8837 17.333 28ZM17.333 21.6C17.333 20.7163 18.0494 20 18.933 20H30.733C31.6167 20 32.333 20.7163 32.333 21.6C32.333 22.4837 31.6167 23.2 30.733 23.2H18.933C18.0494 23.2 17.333 22.4837 17.333 21.6Z" fill="#05AE49"/>
<path d="M29.1902 48.5C29.1902 47.6716 28.5186 47 27.6902 47H13.4759V17H51.1902V30.4286C51.1902 31.2964 51.8937 32 52.7616 32C53.6295 32 54.333 31.2964 54.333 30.4286V17C54.333 16.2044 54.0019 15.4413 53.4125 14.8787C52.8231 14.3161 52.0237 14 51.1902 14H13.4759C12.6423 14 11.8429 14.3161 11.2535 14.8787C10.6641 15.4413 10.333 16.2044 10.333 17V47C10.333 47.7957 10.6641 48.5587 11.2535 49.1213C11.8429 49.6839 12.6423 50 13.4759 50H27.6902C28.5186 50 29.1902 49.3284 29.1902 48.5Z" fill="#05AE49"/>
<path d="M41.6663 46.5048L38.6893 43.5076C38.0699 42.884 37.0611 42.884 36.4417 43.5076C35.8282 44.1253 35.8282 45.1223 36.4417 45.74L41.6663 51L53.2243 39.3638C53.8378 38.7461 53.8378 37.7491 53.2243 37.1314C52.6049 36.5078 51.5961 36.5078 50.9767 37.1314L41.6663 46.5048Z" fill="#05AE49"/>
</svg>
