<svg width="20" height="20" viewBox="0 0 20 20" fill="none" xmlns="http://www.w3.org/2000/svg">
<path d="M13.7277 4.50677L15.4927 6.27093L13.7277 4.50677ZM14.8627 2.9526L10.0902 7.7251C9.84359 7.97135 9.67541 8.28509 9.60685 8.62677L9.16602 10.8334L11.3727 10.3918C11.7143 10.3234 12.0277 10.1559 12.2743 9.90927L17.0468 5.13677C17.1903 4.99335 17.304 4.82309 17.3816 4.63571C17.4593 4.44833 17.4992 4.2475 17.4992 4.04468C17.4992 3.84186 17.4593 3.64103 17.3816 3.45365C17.304 3.26627 17.1903 3.09601 17.0468 2.9526C16.9034 2.80919 16.7332 2.69542 16.5458 2.61781C16.3584 2.54019 16.1576 2.50024 15.9548 2.50024C15.7519 2.50024 15.5511 2.54019 15.3637 2.61781C15.1764 2.69542 15.0061 2.80919 14.8627 2.9526V2.9526Z" stroke="#05AE49" stroke-width="1.5" stroke-linecap="round" stroke-linejoin="round"/>
<path d="M15.834 12.5001V15.0001C15.834 15.4421 15.6584 15.866 15.3458 16.1786C15.0333 16.4912 14.6093 16.6667 14.1673 16.6667H5.00065C4.55862 16.6667 4.1347 16.4912 3.82214 16.1786C3.50958 15.866 3.33398 15.4421 3.33398 15.0001V5.83341C3.33398 5.39139 3.50958 4.96746 3.82214 4.6549C4.1347 4.34234 4.55862 4.16675 5.00065 4.16675H7.50065" stroke="#05AE49" stroke-width="1.5" stroke-linecap="round" stroke-linejoin="round"/>
</svg>
