<svg width="63" height="62" viewBox="0 0 63 62" fill="none" xmlns="http://www.w3.org/2000/svg">
<path fill-rule="evenodd" clip-rule="evenodd" d="M43.4904 18.5631L41.126 27.8961L42.3938 29.1472C45.3302 32.045 47.1663 35.9546 47.1663 40.375C47.1663 45.4644 44.6348 49.9289 40.7548 52.875H21.9112C18.0312 49.9289 15.4997 45.4644 15.4997 40.375C15.4997 35.9546 17.3358 32.045 20.2722 29.1472L21.54 27.8961L19.2051 18.6796L19.1631 18.5148C18.7857 17.0383 18.1273 14.4629 19.7178 12.1084C20.7747 10.5439 23.2779 9.125 28.1663 9.125H34.4997C39.3881 9.125 41.8913 10.5439 42.9482 12.1084C44.5985 14.5513 43.8051 17.6316 43.5288 18.4493L43.4904 18.5631ZM20.883 56H41.783C46.8497 52.5625 50.333 46.9375 50.333 40.375C50.333 35.0625 48.1163 30.375 44.633 26.9375L46.533 19.4375C46.8497 18.5 48.1163 14.125 45.583 10.375C43.683 7.5625 39.883 6 34.4997 6H28.1663C22.783 6 18.983 7.5625 17.083 10.375C14.6862 13.9229 15.6908 17.7505 16.0743 19.2114C16.0961 19.2946 16.1159 19.3701 16.133 19.4375L18.033 26.9375C14.5497 30.375 12.333 35.0625 12.333 40.375C12.333 46.9375 15.8163 52.5625 20.883 56Z" fill="#05AE49"/>
<path fill-rule="evenodd" clip-rule="evenodd" d="M20.6249 17.9837L20.6262 17.9881L22.6921 25.3277L24.3567 24.6237C26.4027 23.7584 28.7244 23.1875 31.333 23.1875C33.9348 23.1875 36.2738 23.755 38.6937 24.6505L40.1446 25.3277L42.3616 17.6574L42.6118 16.0867C42.6573 15.279 42.6016 13.9521 41.783 12.875L41.7155 12.7862L41.6359 12.7076C40.8819 11.9636 39.7869 11.4777 38.6321 11.1709C37.4433 10.8551 36.0346 10.6875 34.4997 10.6875H28.1663C26.4997 10.6875 25.0428 10.8492 23.8656 11.2364C22.7281 11.6106 21.7002 12.25 21.116 13.3022C20.3773 14.3575 20.327 15.62 20.3709 16.3992C20.3957 16.8399 20.4571 17.2258 20.5117 17.5012C20.5393 17.6403 20.5658 17.7547 20.5865 17.838C20.5969 17.8798 20.6058 17.914 20.6128 17.9398L20.6217 17.9723L20.6249 17.9837ZM39.3632 16.5887C39.3977 16.4148 39.4353 16.1757 39.45 15.9133C39.5855 14.7679 38.4124 14.2862 37.8089 14.1885C33.2329 12.9639 27.2743 13.6866 24.867 14.2011C24.1486 14.4374 23.9452 14.7001 23.8825 14.8238L23.8187 14.9498L23.733 15.0625C23.6016 15.2354 23.499 15.6273 23.5327 16.2258C23.5474 16.4882 23.585 16.7273 23.6194 16.9012C23.6364 16.9867 23.6519 17.0529 23.6621 17.0941L23.6728 17.1355L23.6741 17.1401L23.6753 17.1443L24.7937 21.1178C26.7633 20.4678 28.9448 20.0625 31.333 20.0625C33.7916 20.0625 36.0168 20.4923 38.1533 21.1592C38.8096 20.8865 39.2334 17.9985 39.3632 16.5887Z" fill="#05AE49"/>
<path d="M28.7126 34.5453V43.9998H26.7137V36.4426H26.6583L24.4932 37.7999V36.0272L26.8337 34.5453H28.7126Z" fill="#05AE49"/>
<path d="M34.5882 44.1291C34.102 44.126 33.6326 44.0444 33.1802 43.8844C32.7309 43.7244 32.3277 43.4643 31.9707 43.1042C31.6137 42.7441 31.3306 42.2671 31.1213 41.6731C30.9151 41.0791 30.812 40.3497 30.812 39.4849C30.815 38.6909 30.9058 37.9815 31.0843 37.3567C31.2659 36.7289 31.5244 36.1964 31.8599 35.7594C32.1984 35.3224 32.6032 34.99 33.074 34.7623C33.5449 34.5314 34.0727 34.416 34.6575 34.416C35.2884 34.416 35.8455 34.5391 36.3287 34.7853C36.8118 35.0285 37.1996 35.3593 37.492 35.7779C37.7875 36.1964 37.966 36.6658 38.0275 37.1859H36.0563C35.9793 36.8566 35.8178 36.5981 35.5716 36.4103C35.3253 36.2226 35.0207 36.1287 34.6575 36.1287C34.042 36.1287 33.5742 36.3965 33.2541 36.932C32.9371 37.4675 32.7755 38.1954 32.7694 39.1156H32.834C32.9756 38.8355 33.1664 38.597 33.4064 38.4C33.6496 38.2 33.925 38.0476 34.2328 37.943C34.5436 37.8353 34.8714 37.7814 35.2161 37.7814C35.7762 37.7814 36.2748 37.9138 36.7118 38.1784C37.1489 38.44 37.4935 38.8001 37.7459 39.2587C37.9983 39.7173 38.1245 40.242 38.1245 40.8329C38.1245 41.4731 37.9752 42.0424 37.6767 42.541C37.3812 43.0396 36.9673 43.4305 36.4348 43.7136C35.9055 43.9937 35.2899 44.1322 34.5882 44.1291ZM34.579 42.5595C34.8868 42.5595 35.1622 42.4856 35.4054 42.3379C35.6485 42.1902 35.8393 41.9901 35.9778 41.7377C36.1163 41.4854 36.1855 41.2022 36.1855 40.8883C36.1855 40.5744 36.1163 40.2928 35.9778 40.0435C35.8424 39.7942 35.6547 39.5957 35.4146 39.448C35.1745 39.3002 34.9006 39.2264 34.5929 39.2264C34.362 39.2264 34.1481 39.2695 33.9512 39.3556C33.7573 39.4418 33.5865 39.5618 33.4387 39.7157C33.2941 39.8696 33.1802 40.0481 33.0971 40.2512C33.014 40.4513 32.9725 40.6652 32.9725 40.8929C32.9725 41.1976 33.0417 41.4761 33.1802 41.7285C33.3218 41.9809 33.5126 42.1825 33.7527 42.3333C33.9958 42.4841 34.2712 42.5595 34.579 42.5595Z" fill="#05AE49"/>
</svg>
