<svg width="80" height="80" viewBox="0 0 80 80" fill="none" xmlns="http://www.w3.org/2000/svg">
<path d="M78.1915 42.4064C79.5006 41.0973 79.5006 38.9551 78.1915 37.6461L42.116 1.57061C40.9379 0.39248 39.0099 0.39248 37.8318 1.57061L1.51836 37.884C0.340234 39.0622 0.340234 40.9901 1.51836 42.1683L37.5937 78.2437C38.9027 79.5528 41.0449 79.5528 42.354 78.2437L78.1915 42.4064Z" fill="#05AE49"/>
<path d="M47.8113 41.7625C46.8288 43.7537 45.4975 45.7375 44.1362 47.5187C42.8449 49.198 41.4642 50.8066 40 52.3375C38.5358 50.8066 37.155 49.1981 35.8637 47.5187C34.5025 45.7375 33.1713 43.7537 32.1888 41.7625C31.195 39.7506 30.625 37.8663 30.625 36.25C30.625 33.7636 31.6127 31.379 33.3709 29.6209C35.129 27.8627 37.5136 26.875 40 26.875C42.4864 26.875 44.871 27.8627 46.6291 29.6209C48.3873 31.379 49.375 33.7636 49.375 36.25C49.375 37.8663 48.8031 39.7506 47.8113 41.7625ZM40 55C40 55 51.25 44.3388 51.25 36.25C51.25 33.2663 50.0647 30.4048 47.955 28.295C45.8452 26.1853 42.9837 25 40 25C37.0163 25 34.1548 26.1853 32.045 28.295C29.9353 30.4048 28.75 33.2663 28.75 36.25C28.75 44.3388 40 55 40 55Z" fill="#F0F4EE"/>
<path d="M40 40C39.0054 40 38.0516 39.6049 37.3483 38.9017C36.6451 38.1984 36.25 37.2446 36.25 36.25C36.25 35.2554 36.6451 34.3016 37.3483 33.5983C38.0516 32.8951 39.0054 32.5 40 32.5C40.9946 32.5 41.9484 32.8951 42.6516 33.5983C43.3549 34.3016 43.75 35.2554 43.75 36.25C43.75 37.2446 43.3549 38.1984 42.6516 38.9017C41.9484 39.6049 40.9946 40 40 40ZM40 41.875C41.4918 41.875 42.9226 41.2824 43.9775 40.2275C45.0324 39.1726 45.625 37.7418 45.625 36.25C45.625 34.7582 45.0324 33.3274 43.9775 32.2725C42.9226 31.2176 41.4918 30.625 40 30.625C38.5082 30.625 37.0774 31.2176 36.0225 32.2725C34.9676 33.3274 34.375 34.7582 34.375 36.25C34.375 37.7418 34.9676 39.1726 36.0225 40.2275C37.0774 41.2824 38.5082 41.875 40 41.875Z" fill="#F0F4EE"/>
<path fill-rule="evenodd" clip-rule="evenodd" d="M44.1362 47.5187C45.4975 45.7375 46.8288 43.7537 47.8113 41.7625C48.8031 39.7506 49.375 37.8663 49.375 36.25C49.375 33.7636 48.3873 31.379 46.6291 29.6209C44.871 27.8627 42.4864 26.875 40 26.875C37.5136 26.875 35.129 27.8627 33.3709 29.6209C31.6127 31.379 30.625 33.7636 30.625 36.25C30.625 37.8663 31.195 39.7506 32.1888 41.7625C33.1713 43.7537 34.5025 45.7375 35.8637 47.5187C37.155 49.1981 38.5358 50.8066 40 52.3375C41.4642 50.8066 42.8449 49.198 44.1362 47.5187ZM37.3483 38.9017C38.0516 39.6049 39.0054 40 40 40C40.9946 40 41.9484 39.6049 42.6516 38.9017C43.3549 38.1984 43.75 37.2446 43.75 36.25C43.75 35.2554 43.3549 34.3016 42.6516 33.5983C41.9484 32.8951 40.9946 32.5 40 32.5C39.0054 32.5 38.0516 32.8951 37.3483 33.5983C36.6451 34.3016 36.25 35.2554 36.25 36.25C36.25 37.2446 36.6451 38.1984 37.3483 38.9017Z" fill="#F0F4EE"/>
</svg>
