<svg width="32" height="32" viewBox="0 0 32 32" fill="none" xmlns="http://www.w3.org/2000/svg">
<circle cx="16" cy="16" r="16" fill="#E0E0E0"/>
<path d="M15.9997 15.3333C15.2924 15.3333 14.6142 15.0524 14.1141 14.5523C13.614 14.0522 13.333 13.3739 13.333 12.6667C13.333 11.9594 13.614 11.2811 14.1141 10.781C14.6142 10.281 15.2924 10 15.9997 10C16.7069 10 17.3852 10.281 17.8853 10.781C18.3854 11.2811 18.6663 11.9594 18.6663 12.6667C18.6663 13.3739 18.3854 14.0522 17.8853 14.5523C17.3852 15.0524 16.7069 15.3333 15.9997 15.3333Z" fill="#898A8C" stroke="#898A8C" stroke-width="1.33333" stroke-linecap="round"/>
<path d="M10.666 22V21.3334C10.666 20.2725 11.0874 19.2551 11.8376 18.5049C12.5877 17.7548 13.6051 17.3334 14.666 17.3334H17.3327C18.3935 17.3334 19.411 17.7548 20.1611 18.5049C20.9113 19.2551 21.3327 20.2725 21.3327 21.3334V22" fill="#898A8C"/>
</svg>
