<svg width="156" height="146" viewBox="0 0 156 146" fill="none" xmlns="http://www.w3.org/2000/svg">
<rect width="156" height="146" rx="15" fill="#05AE49" fill-opacity="0.3"/>
<path d="M77.9997 49.9999H71.333M77.9997 56.6666V49.9999V56.6666ZM77.9997 49.9999V43.3333V49.9999ZM77.9997 49.9999H84.6663H77.9997Z" stroke="black" stroke-width="1.66667" stroke-linecap="round" stroke-linejoin="round"/>
<path d="M44.608 84V73.0909H48.6031C49.3772 73.0909 50.0182 73.2187 50.526 73.4744C51.0338 73.7266 51.4138 74.0692 51.6659 74.5025C51.9181 74.9322 52.0441 75.4169 52.0441 75.9567C52.0441 76.4112 51.9607 76.7947 51.7938 77.1072C51.6269 77.4162 51.4031 77.6648 51.1226 77.853C50.8456 78.0376 50.5402 78.1726 50.2064 78.2578V78.3643C50.5686 78.3821 50.922 78.4993 51.2664 78.7159C51.6144 78.929 51.9021 79.2326 52.1293 79.6268C52.3566 80.021 52.4703 80.5004 52.4703 81.065C52.4703 81.6225 52.3389 82.1232 52.0761 82.5671C51.8168 83.0075 51.4156 83.3572 50.8722 83.6165C50.3289 83.8722 49.6347 84 48.7895 84H44.608ZM46.254 82.5884H48.6297C49.4181 82.5884 49.9827 82.4357 50.3236 82.1303C50.6645 81.8249 50.835 81.4432 50.835 80.9851C50.835 80.6406 50.748 80.3246 50.5739 80.0369C50.3999 79.7493 50.1514 79.5202 49.8282 79.3498C49.5086 79.1793 49.1286 79.0941 48.6883 79.0941H46.254V82.5884ZM46.254 77.8104H48.4592C48.8286 77.8104 49.1606 77.7393 49.4553 77.5973C49.7536 77.4553 49.9898 77.2564 50.1638 77.0007C50.3413 76.7415 50.4301 76.4361 50.4301 76.0845C50.4301 75.6335 50.2721 75.2553 49.9561 74.9499C49.64 74.6445 49.1553 74.4918 48.5019 74.4918H46.254V77.8104ZM55.4484 77.4908H58.3887C59.1984 77.4908 59.8873 77.6222 60.4555 77.8849C61.0237 78.1477 61.4569 78.5188 61.7552 78.9982C62.0571 79.4776 62.2062 80.0423 62.2026 80.6921C62.2062 81.342 62.0571 81.9155 61.7552 82.4126C61.4569 82.9098 61.0237 83.2987 60.4555 83.5792C59.8873 83.8597 59.1984 84 58.3887 84H54.3031V73.0909H55.9544V82.6151H58.3887C58.861 82.6151 59.2588 82.5227 59.5819 82.3381C59.9086 82.1534 60.1554 81.9137 60.3223 81.619C60.4928 81.3242 60.578 81.0082 60.578 80.6708C60.578 80.1808 60.3898 79.7599 60.0134 79.4084C59.637 79.0533 59.0954 78.8757 58.3887 78.8757H55.4484V77.4908ZM64.8607 73.0909V84H63.2094V73.0909H64.8607ZM67.1264 84V73.0909H73.9286V74.5078H68.7723V77.4908H71.2119C72.0216 77.4908 72.7087 77.6222 73.2734 77.8849C73.8416 78.1477 74.2748 78.5188 74.5731 78.9982C74.8749 79.4776 75.0259 80.0423 75.0259 80.6921C75.0259 81.342 74.8749 81.9155 74.5731 82.4126C74.2748 82.9098 73.8416 83.2987 73.2734 83.5792C72.7087 83.8597 72.0216 84 71.2119 84H67.1264ZM68.7723 82.6151H71.2119C71.6807 82.6151 72.0766 82.5227 72.3998 82.3381C72.7265 82.1534 72.9733 81.9137 73.1402 81.619C73.3107 81.3242 73.3959 81.0082 73.3959 80.6708C73.3959 80.1808 73.2077 79.7599 72.8313 79.4084C72.4548 79.0533 71.9151 78.8757 71.2119 78.8757H68.7723V82.6151ZM76.8401 84V73.0909H80.7286C81.5773 73.0909 82.2805 73.2454 82.838 73.5543C83.3955 73.8633 83.8128 74.2859 84.0898 74.8221C84.3667 75.3548 84.5052 75.9549 84.5052 76.6225C84.5052 77.2937 84.365 77.8974 84.0844 78.4336C83.8074 78.9663 83.3884 79.3888 82.8273 79.7013C82.2698 80.0103 81.5684 80.1648 80.7233 80.1648H78.0493V78.7692H80.5741C81.1104 78.7692 81.5454 78.6768 81.8792 78.4922C82.213 78.304 82.458 78.0483 82.6143 77.7251C82.7705 77.402 82.8486 77.0344 82.8486 76.6225C82.8486 76.2106 82.7705 75.8448 82.6143 75.5252C82.458 75.2056 82.2112 74.9553 81.8738 74.7741C81.54 74.593 81.0997 74.5025 80.5528 74.5025H78.4861V84H76.8401ZM86.0691 84H84.322L88.2478 73.0909H90.1494L94.0752 84H92.328L89.2438 75.0724H89.1586L86.0691 84ZM86.3621 79.728H92.0297V81.1129H86.3621V79.728ZM93.6935 74.5078V73.0909H102.136V74.5078H98.7325V84H97.0919V74.5078H93.6935ZM105.028 77.4908H107.968C108.778 77.4908 109.467 77.6222 110.035 77.8849C110.603 78.1477 111.036 78.5188 111.335 78.9982C111.637 79.4776 111.786 80.0423 111.782 80.6921C111.786 81.342 111.637 81.9155 111.335 82.4126C111.036 82.9098 110.603 83.2987 110.035 83.5792C109.467 83.8597 108.778 84 107.968 84H103.883V73.0909H105.534V82.6151H107.968C108.441 82.6151 108.838 82.5227 109.161 82.3381C109.488 82.1534 109.735 81.9137 109.902 81.619C110.072 81.3242 110.157 81.0082 110.157 80.6708C110.157 80.1808 109.969 79.7599 109.593 79.4084C109.216 79.0533 108.675 78.8757 107.968 78.8757H105.028V77.4908ZM21.5917 91.0909H23.2216V99.1023H23.3229L28.8733 91.0909H30.3967V102H28.7508V93.9993H28.6496L23.1098 102H21.5917V91.0909ZM36.3165 102.149C35.585 102.149 34.9316 102.023 34.3563 101.771C33.7846 101.519 33.3318 101.169 32.998 100.722C32.6677 100.271 32.4902 99.7486 32.4653 99.1555H34.1379C34.1592 99.4787 34.2675 99.7592 34.4628 99.9972C34.6617 100.232 34.9209 100.413 35.2405 100.54C35.5601 100.668 35.9152 100.732 36.3059 100.732C36.7356 100.732 37.1155 100.658 37.4458 100.509C37.7796 100.359 38.0406 100.152 38.2288 99.8853C38.417 99.6154 38.5111 99.3047 38.5111 98.9531C38.5111 98.5874 38.417 98.266 38.2288 97.989C38.0441 97.7085 37.7725 97.4883 37.4138 97.3285C37.0587 97.1687 36.629 97.0888 36.1248 97.0888H35.2032V95.7464H36.1248C36.5296 95.7464 36.8847 95.6737 37.1901 95.5281C37.499 95.3825 37.7405 95.18 37.9145 94.9208C38.0885 94.658 38.1755 94.3509 38.1755 93.9993C38.1755 93.6619 38.0992 93.369 37.9465 93.1204C37.7973 92.8683 37.5843 92.6712 37.3073 92.5291C37.0339 92.3871 36.7107 92.3161 36.3378 92.3161C35.9827 92.3161 35.6507 92.3817 35.3417 92.5131C35.0363 92.641 34.7878 92.8256 34.596 93.0671C34.4042 93.305 34.3013 93.5909 34.287 93.9247H32.6944C32.7121 93.3352 32.8861 92.8168 33.2164 92.3693C33.5502 91.9219 33.9905 91.5721 34.5374 91.32C35.0843 91.0678 35.6915 90.9418 36.3591 90.9418C37.0587 90.9418 37.6624 91.0785 38.1702 91.3519C38.6816 91.6218 39.0758 91.9822 39.3527 92.4332C39.6333 92.8842 39.7718 93.3778 39.7682 93.9141C39.7718 94.5249 39.6013 95.0433 39.2569 95.4695C38.916 95.8956 38.4614 96.1815 37.8932 96.3271V96.4123C38.6177 96.5224 39.1787 96.81 39.5765 97.2752C39.9777 97.7404 40.1766 98.3175 40.1731 99.0064C40.1766 99.6065 40.0097 100.145 39.6723 100.62C39.3385 101.096 38.8822 101.471 38.3034 101.744C37.7245 102.014 37.0623 102.149 36.3165 102.149ZM51.6819 96.5455C51.6819 97.7102 51.4688 98.7116 51.0427 99.5497C50.6166 100.384 50.0324 101.027 49.2902 101.478C48.5516 101.925 47.7117 102.149 46.7707 102.149C45.8261 102.149 44.9827 101.925 44.2405 101.478C43.5019 101.027 42.9195 100.382 42.4933 99.5444C42.0672 98.7063 41.8541 97.7067 41.8541 96.5455C41.8541 95.3807 42.0672 94.381 42.4933 93.5465C42.9195 92.7085 43.5019 92.0657 44.2405 91.6183C44.9827 91.1673 45.8261 90.9418 46.7707 90.9418C47.7117 90.9418 48.5516 91.1673 49.2902 91.6183C50.0324 92.0657 50.6166 92.7085 51.0427 93.5465C51.4688 94.381 51.6819 95.3807 51.6819 96.5455ZM50.0519 96.5455C50.0519 95.6577 49.9081 94.9102 49.6205 94.3029C49.3364 93.6921 48.9458 93.2305 48.4486 92.918C47.955 92.6019 47.3957 92.4439 46.7707 92.4439C46.1421 92.4439 45.5811 92.6019 45.0874 92.918C44.5938 93.2305 44.2032 93.6921 43.9156 94.3029C43.6315 94.9102 43.4894 95.6577 43.4894 96.5455C43.4894 97.4332 43.6315 98.1825 43.9156 98.7933C44.2032 99.4006 44.5938 99.8622 45.0874 100.178C45.5811 100.491 46.1421 100.647 46.7707 100.647C47.3957 100.647 47.955 100.491 48.4486 100.178C48.9458 99.8622 49.3364 99.4006 49.6205 98.7933C49.9081 98.1825 50.0519 97.4332 50.0519 96.5455ZM53.604 102V91.0909H60.4062V92.5078H55.25V95.4908H57.6896C58.4993 95.4908 59.1864 95.6222 59.751 95.8849C60.3192 96.1477 60.7525 96.5188 61.0508 96.9982C61.3526 97.4776 61.5035 98.0423 61.5035 98.6921C61.5035 99.342 61.3526 99.9155 61.0508 100.413C60.7525 100.91 60.3192 101.299 59.751 101.579C59.1864 101.86 58.4993 102 57.6896 102H53.604ZM55.25 100.615H57.6896C58.1584 100.615 58.5543 100.523 58.8775 100.338C59.2042 100.153 59.451 99.9137 59.6179 99.619C59.7883 99.3242 59.8736 99.0082 59.8736 98.6708C59.8736 98.1808 59.6853 97.7599 59.3089 97.4084C58.9325 97.0533 58.3927 96.8757 57.6896 96.8757H55.25V100.615ZM63.3178 102V91.0909H67.2063C68.055 91.0909 68.7581 91.2454 69.3156 91.5543C69.8732 91.8633 70.2904 92.2859 70.5674 92.8221C70.8444 93.3548 70.9829 93.9549 70.9829 94.6225C70.9829 95.2937 70.8426 95.8974 70.5621 96.4336C70.2851 96.9663 69.8661 97.3888 69.305 97.7013C68.7475 98.0103 68.0461 98.1648 67.2009 98.1648H64.5269V96.7692H67.0518C67.588 96.7692 68.023 96.6768 68.3568 96.4922C68.6906 96.304 68.9357 96.0483 69.0919 95.7251C69.2482 95.402 69.3263 95.0344 69.3263 94.6225C69.3263 94.2106 69.2482 93.8448 69.0919 93.5252C68.9357 93.2056 68.6889 92.9553 68.3515 92.7741C68.0177 92.593 67.5774 92.5025 67.0305 92.5025H64.9637V102H63.3178ZM72.5468 102H70.7996L74.7254 91.0909H76.627L80.5528 102H78.8057L75.7215 93.0724H75.6363L72.5468 102ZM72.8398 97.728H78.5074V99.1129H72.8398V97.728ZM89.0721 91.0909V102H87.4421V91.0909H89.0721ZM81.2152 102L84.7095 96.2898L81.4602 91.0909H83.4737L86.1797 95.8104H90.3718L93.0564 91.0909H95.0646L91.826 96.3004L95.299 102H93.376L90.6328 97.3445H85.8973L83.1168 102H81.2152ZM96.7803 102V91.0909H103.62V92.5078H98.4263V95.8317H103.263V97.2433H98.4263V100.583H103.684V102H96.7803ZM105.688 102V91.0909H107.334V95.8317H112.773V91.0909H114.424V102H112.773V97.2433H107.334V102H105.688ZM116.691 91.0909H118.321V99.1023H118.422L123.973 91.0909H125.496V102H123.85V93.9993H123.749L118.209 102H116.691V91.0909ZM127.767 102V91.0909H134.607V92.5078H129.413V95.8317H134.25V97.2433H129.413V100.583H134.671V102H127.767Z" fill="#292B2E"/>
</svg>
