<svg width="24" height="24" viewBox="0 0 24 24" fill="none" xmlns="http://www.w3.org/2000/svg">
<path d="M11.3981 0.00349227C9.47212 0.0267423 5.33137 0.343242 3.01537 2.46799C1.29262 4.17499 0.691116 6.69874 0.620616 9.81949C0.562116 12.929 0.491616 18.7685 6.12037 20.3585V22.7802C6.12037 22.7802 6.08512 23.7492 6.72562 23.948C7.51462 24.1977 7.96387 23.4522 8.71387 22.6512L10.1126 21.0695C13.9639 21.3897 16.9136 20.6517 17.2534 20.5422C18.0349 20.2925 22.4366 19.73 23.1559 13.8897C23.8939 7.85824 22.7966 4.05799 20.8159 2.33899H20.8039C20.2061 1.78849 17.8039 0.0379923 12.4369 0.0184923C12.4369 0.0184923 12.0386 -0.00850773 11.3981 0.00274227V0.00349227ZM11.4641 1.69924C12.0109 1.69549 12.3431 1.71874 12.3431 1.71874C16.8859 1.73074 19.0541 3.09799 19.5656 3.55849C21.2336 4.98799 22.0931 8.41399 21.4639 13.4495C20.8661 18.332 17.2961 18.641 16.6354 18.8517C16.3541 18.9417 13.7561 19.5822 10.4831 19.3715C10.4831 19.3715 8.04562 22.313 7.28362 23.0705C7.16287 23.2032 7.02187 23.2422 6.93187 23.2227C6.80287 23.1912 6.76387 23.0315 6.77137 22.8125L6.79462 18.7932C2.02087 17.4732 2.30212 12.4925 2.35312 9.89074C2.41162 7.28899 2.89987 5.16049 4.35337 3.71899C6.31012 1.94974 9.82612 1.71124 11.4626 1.69924H11.4641ZM11.8241 4.30024C11.7848 4.29985 11.7458 4.30723 11.7094 4.32197C11.673 4.33671 11.6399 4.35851 11.6119 4.38612C11.5839 4.41373 11.5617 4.4466 11.5465 4.48283C11.5313 4.51907 11.5235 4.55795 11.5234 4.59724C11.5234 4.76524 11.6599 4.89799 11.8241 4.89799C12.5677 4.88385 13.3068 5.01707 13.9987 5.28996C14.6906 5.56286 15.3216 5.97003 15.8554 6.48799C16.9451 7.54624 17.4761 8.96824 17.4964 10.8275C17.4964 10.9917 17.6291 11.1282 17.7971 11.1282V11.1162C17.8763 11.1164 17.9523 11.0853 18.0087 11.0297C18.065 10.9741 18.0971 10.8984 18.0979 10.8192C18.1343 9.9441 17.9924 9.0707 17.6807 8.25212C17.3691 7.43353 16.8943 6.68686 16.2851 6.05749C15.0979 4.89724 13.5934 4.29949 11.8241 4.29949V4.30024ZM7.87087 4.98799C7.65858 4.95697 7.44207 4.99959 7.25737 5.10874H7.24162C6.81281 5.3601 6.42653 5.67778 6.09712 6.04999C5.82337 6.36649 5.67487 6.68674 5.63587 6.99499C5.61262 7.17874 5.62837 7.36249 5.68312 7.53799L5.70262 7.54999C6.01087 8.45599 6.41362 9.32749 6.90562 10.148C7.53938 11.3007 8.31933 12.3668 9.22612 13.3197L9.25312 13.3587L9.29587 13.3902L9.32287 13.4217L9.35437 13.4487C10.3108 14.3582 11.3794 15.1418 12.5344 15.7805C13.8544 16.499 14.6554 16.8387 15.1361 16.9797V16.9872C15.2771 17.03 15.4054 17.0495 15.5344 17.0495C15.9441 17.0195 16.332 16.8531 16.6361 16.577C17.0066 16.2475 17.3208 15.8596 17.5661 15.4287V15.4212C17.7964 14.9877 17.7184 14.5775 17.3861 14.3C16.7207 13.7184 16.0012 13.2018 15.2374 12.7572C14.7259 12.4797 14.2061 12.6477 13.9954 12.929L13.5461 13.4952C13.3159 13.7765 12.8974 13.7375 12.8974 13.7375L12.8854 13.745C9.76462 12.9477 8.93212 9.78799 8.93212 9.78799C8.93212 9.78799 8.89312 9.35824 9.18187 9.13924L9.74437 8.68624C10.0136 8.46724 10.2011 7.94824 9.91237 7.43599C9.47092 6.67111 8.95545 5.95141 8.37337 5.28724C8.24612 5.13066 8.06759 5.02413 7.86937 4.98649L7.87087 4.98799ZM12.3431 5.87899C11.9449 5.87899 11.9449 6.48049 12.3469 6.48049C12.8421 6.48853 13.3309 6.59407 13.7853 6.79109C14.2397 6.98812 14.6508 7.27275 14.9951 7.62874C15.3092 7.97525 15.5506 8.38128 15.705 8.82277C15.8593 9.26427 15.9234 9.73225 15.8936 10.199C15.895 10.278 15.9272 10.3533 15.9834 10.4088C16.0397 10.4643 16.1154 10.4956 16.1944 10.496L16.2064 10.5117C16.2859 10.5112 16.3621 10.4793 16.4184 10.423C16.4747 10.3667 16.5065 10.2906 16.5071 10.211C16.5341 9.01924 16.1636 8.01949 15.4369 7.21849C14.7064 6.41749 13.6871 5.96824 12.3859 5.87899H12.3431ZM12.8359 7.49599C12.4256 7.48399 12.4099 8.09749 12.8164 8.10949C13.8049 8.16049 14.2849 8.65999 14.3479 9.68749C14.3492 9.76549 14.3811 9.83985 14.4366 9.89465C14.4921 9.94946 14.5669 9.98036 14.6449 9.98074H14.6569C14.697 9.97902 14.7363 9.96933 14.7727 9.95224C14.809 9.93514 14.8415 9.91098 14.8684 9.88117C14.8953 9.85136 14.916 9.81649 14.9292 9.7786C14.9425 9.74071 14.948 9.70056 14.9456 9.66049C14.8751 8.32099 14.1446 7.56649 12.8479 7.49674H12.8359V7.49599Z" fill="#7360F2"/>
</svg>
