<svg width="162" height="40" viewBox="0 0 162 40" fill="none" xmlns="http://www.w3.org/2000/svg">
<path fill-rule="evenodd" clip-rule="evenodd" d="M7.61523 5.27131C8.34836 5.37084 9.21206 5.67612 9.21206 5.83568C9.21206 5.8837 9.24019 5.91715 9.27448 5.90987C9.38858 5.88585 9.62786 6.02215 9.58708 6.08789C9.56494 6.12349 9.62511 6.17293 9.72074 6.19785C9.81711 6.22294 9.86996 6.28272 9.83933 6.33207C9.80896 6.381 9.84241 6.44328 9.91373 6.47052C9.98506 6.49776 10.0227 6.55331 9.99729 6.59413C9.97199 6.63487 9.9824 6.66824 10.0205 6.66824C10.1022 6.66824 10.3253 7.09078 10.4531 7.48789C10.5715 7.85594 10.5695 9.18298 10.45 9.56039C10.2937 10.0541 10.02 10.6427 9.94686 10.6427C9.90891 10.6427 9.87786 10.6986 9.87786 10.7669C9.87786 10.8352 9.84973 10.8914 9.81545 10.8918C9.78116 10.8922 9.61512 11.0226 9.44651 11.1816C9.2779 11.3406 9.08124 11.4707 9.00958 11.4707C8.93784 11.4707 8.87917 11.4991 8.87917 11.5339C8.87917 11.5686 8.79736 11.6338 8.69732 11.6788C8.47419 11.779 8.39996 11.9675 8.58355 11.9675C8.65745 11.9675 8.73943 12.0231 8.76565 12.0912C8.79195 12.1593 8.84687 12.1944 8.8879 12.1691C8.92885 12.1439 8.96239 12.1588 8.96239 12.2021C8.96239 12.2453 9.05535 12.3039 9.16895 12.3323C9.28256 12.3607 9.43095 12.4906 9.49878 12.621C9.56652 12.7515 9.67962 12.8802 9.74995 12.907C9.82027 12.9339 9.87786 13.0316 9.87786 13.1241C9.87786 13.2166 9.90616 13.2923 9.94087 13.2923C10.1821 13.2923 10.2986 14.9403 10.1176 15.793C9.88194 16.904 9.05777 18.007 8.06989 18.5334C7.83078 18.6609 7.61381 18.7595 7.58776 18.7526C7.56171 18.7456 7.43904 18.7765 7.31512 18.8213C6.74669 19.0261 5.73294 19.0884 2.96604 19.0884C0.603286 19.0884 0.0440114 19.0673 0.00922335 18.9771C-0.0144125 18.9159 0.00897355 18.6272 0.0611556 18.3354C0.226274 17.4128 0.311163 16.9088 0.387564 16.3973C0.468209 15.8571 0.79961 13.9313 1.05003 12.5471C1.24212 11.4859 1.30312 11.1363 1.38976 10.6013C1.42654 10.3736 1.49529 9.96371 1.54248 9.69047C1.58966 9.41723 1.6867 8.83969 1.75819 8.40706C1.82968 7.97443 1.92306 7.45278 1.96584 7.24785C2.00854 7.04292 2.08968 6.55853 2.14619 6.17144C2.2027 5.78434 2.27985 5.40537 2.31772 5.32919C2.3793 5.20532 2.62241 5.18992 4.63936 5.18197C5.96863 5.17667 7.18862 5.21335 7.61523 5.27131ZM4.11788 7.71848C4.09507 7.59942 4.10831 7.49145 4.14742 7.47845C4.18654 7.46545 4.90934 7.45882 5.75374 7.46362C7.36298 7.4729 7.67074 7.52788 8.0053 7.86613C8.36384 8.22871 8.47952 8.97747 8.25831 9.50425C8.19139 9.66339 8.16335 9.82295 8.19589 9.8588C8.22835 9.89466 8.21253 9.89987 8.1606 9.8704C8.10625 9.83951 8.02586 9.91287 7.9711 10.0434C7.85542 10.319 7.44304 10.5974 6.95792 10.7274C6.75194 10.7825 5.96838 10.8263 5.13005 10.8292C3.73454 10.8343 3.31992 10.7858 3.54937 10.6448C3.60305 10.6118 3.67895 10.3835 3.71798 10.1376C3.75701 9.89168 3.83641 9.42965 3.89425 9.11087C3.95217 8.79208 4.00194 8.37642 4.00502 8.18722C4.00802 7.9981 4.04406 7.86389 4.085 7.88906C4.12595 7.91423 4.14076 7.83747 4.11788 7.71848ZM2.92301 14.5757C2.99983 14.0748 3.10087 13.5438 3.14772 13.3958L3.23278 13.1267H4.71052C6.62203 13.1267 7.05354 13.2104 7.51669 13.6712C7.79 13.9432 7.88038 14.1047 7.92516 14.4016C7.9924 14.848 7.918 15.437 7.75471 15.7502C7.69121 15.8719 7.66192 16.0078 7.68955 16.0523C7.71718 16.0968 7.70045 16.1089 7.65235 16.0794C7.56712 16.027 7.42273 16.2469 7.45319 16.3828C7.46159 16.4204 7.43263 16.429 7.38894 16.4021C7.34516 16.3752 7.28649 16.3901 7.25853 16.4352C7.18662 16.5509 6.74178 16.7376 6.28313 16.8445C6.06716 16.8949 5.14163 16.9355 4.21267 16.9355H2.53277L2.59602 16.5836C2.69598 16.0276 2.77304 15.5541 2.92301 14.5757Z" fill="#292B2E"/>
<path fill-rule="evenodd" clip-rule="evenodd" d="M20.1737 5.21782C20.4122 5.29963 20.6922 5.44511 20.7959 5.54124C20.8997 5.63738 20.9991 5.70121 21.0168 5.68316C21.066 5.63315 21.9455 6.33546 21.9455 6.42472C21.9455 6.46753 22.0111 6.57451 22.0911 6.66228C22.523 7.13582 22.7534 7.5321 22.985 8.20006C23.2848 9.06466 23.3656 9.66903 23.3514 10.9389C23.3378 12.1559 23.2525 12.9379 23.1018 13.229C23.0609 13.3081 23.0274 13.4316 23.0274 13.5034C23.0274 13.6998 22.7807 14.4352 22.5426 14.9483C22.4264 15.1988 22.327 15.4224 22.3218 15.4451C22.2876 15.5962 21.8973 16.2508 21.7877 16.3411C21.7143 16.4016 21.7049 16.4251 21.7669 16.3933C21.844 16.3538 21.8344 16.4041 21.7365 16.5527C21.5993 16.7612 21.4566 16.8712 21.5789 16.6743C21.616 16.6146 21.6017 16.6013 21.5409 16.6387C21.4873 16.6717 21.4655 16.734 21.4923 16.7774C21.5504 16.8708 21.1549 17.3634 21.0809 17.2898C21.0529 17.2619 21.03 17.2956 21.03 17.3645C21.03 17.5529 19.9199 18.4696 19.7891 18.3891C19.7455 18.3624 19.6829 18.3841 19.6497 18.4374C19.6096 18.5019 19.6286 18.5138 19.7063 18.473C19.7707 18.4392 19.7347 18.4834 19.6265 18.5712C19.5183 18.659 19.2936 18.7764 19.1272 18.8322C18.9607 18.8881 18.7497 18.9646 18.6581 19.0023C17.9962 19.2754 16.2021 19.3295 15.662 19.0927C15.5247 19.0325 15.3194 18.9713 15.2058 18.9566C15.0923 18.942 14.9612 18.878 14.9145 18.8146C14.8679 18.7512 14.7923 18.6889 14.7465 18.6763C14.5043 18.6093 14.3831 18.5294 14.0653 18.2272C13.8738 18.0451 13.7355 17.8662 13.7582 17.8298C13.7808 17.7934 13.7473 17.7635 13.6836 17.7635C13.6199 17.7635 13.5147 17.6611 13.4498 17.5358C13.3849 17.4106 13.2652 17.235 13.184 17.1454C13.1028 17.0559 13.0537 16.9379 13.0747 16.8832C13.0959 16.8285 13.0593 16.7631 12.9936 16.738C12.9278 16.7129 12.874 16.6188 12.874 16.529C12.874 16.4392 12.841 16.3454 12.8007 16.3207C12.7604 16.2958 12.7079 16.1912 12.6841 16.0881C12.6603 15.9849 12.5787 15.677 12.5027 15.4037C12.2928 14.6496 12.3105 12.5185 12.5358 11.4197C12.7455 10.3964 13.1819 9.05034 13.3313 8.96613C13.3916 8.9321 13.4238 8.83878 13.4028 8.75871C13.3818 8.67872 13.4392 8.53358 13.5304 8.43612C13.6216 8.33875 13.6735 8.23649 13.6457 8.20883C13.618 8.18126 13.639 8.15866 13.6923 8.15866C13.7458 8.15866 13.7834 8.13067 13.7761 8.09656C13.7567 8.00746 13.9425 7.57905 14.0003 7.57905C14.0271 7.57905 14.0222 7.62211 13.9896 7.67469C13.9525 7.73439 13.9668 7.74771 14.0276 7.71029C14.0812 7.67733 14.1035 7.61581 14.0772 7.5735C14.0218 7.48424 14.2077 7.19262 14.3304 7.17615C14.3762 7.17002 14.4136 7.12663 14.4136 7.07968C14.4136 6.98098 15.4524 6.00584 15.5575 6.00584C15.5961 6.00584 15.729 5.91203 15.8529 5.79743C16.0885 5.57942 16.7036 5.31627 17.4097 5.13121C18.0034 4.97571 19.6148 5.02622 20.1737 5.21782ZM14.6425 6.92725C14.5105 7.03017 14.5076 7.02727 14.6111 6.89595C14.6739 6.81621 14.7395 6.75104 14.7567 6.75104C14.8252 6.75104 14.7812 6.81903 14.6425 6.92725ZM16.61 7.989C16.9389 7.70334 17.6405 7.35457 17.9923 7.30191C18.5543 7.2177 19.2324 7.33346 19.6427 7.58377C19.8639 7.71857 20.085 7.80419 20.1341 7.77396C20.1856 7.74233 20.1994 7.75782 20.1667 7.81048C20.1354 7.86083 20.1855 7.94221 20.2778 7.9914C20.3702 8.04058 20.4402 8.10765 20.4334 8.14044C20.411 8.2485 20.5469 8.48969 20.6087 8.4516C20.6421 8.43115 20.6694 8.46411 20.6694 8.52496C20.6694 8.58574 20.7446 8.79838 20.8364 8.99743C21.1175 9.6061 21.2303 10.6777 21.1166 11.6597C21.0627 12.125 20.9881 12.5988 20.9508 12.7127C20.9134 12.8266 20.8341 13.0874 20.7744 13.2923C20.6697 13.6526 20.2809 14.5896 20.1132 14.8862C20.0682 14.966 19.9846 15.115 19.9273 15.2174C19.8701 15.3198 19.7858 15.4311 19.74 15.4646C19.6943 15.498 19.685 15.5259 19.7194 15.5267C19.7539 15.5273 19.6466 15.655 19.481 15.8104C19.3155 15.9657 19.2051 16.133 19.2355 16.1821C19.2688 16.2355 19.2434 16.2531 19.1718 16.2258C19.1044 16.2 18.9829 16.2684 18.8922 16.3832C18.804 16.4947 18.6591 16.6017 18.5701 16.6208C18.4812 16.6399 18.4188 16.7027 18.4313 16.7603C18.4439 16.8179 18.4246 16.8469 18.3884 16.8246C18.3522 16.8023 18.1172 16.8386 17.8661 16.9052C17.2987 17.0556 16.6303 16.9945 16.1198 16.7456C15.7184 16.5498 15.2726 16.1557 15.1794 15.9141C15.1464 15.8287 15.0813 15.791 15.0256 15.8253C14.9655 15.8622 14.9514 15.8485 14.9881 15.7892C15.0581 15.6766 14.8422 15.3362 14.7554 15.4224C14.7228 15.4549 14.7176 15.4258 14.7438 15.3579C14.7701 15.2898 14.735 15.0488 14.6659 14.8221C14.5051 14.2948 14.5024 12.8908 14.6606 12.0089C14.8342 11.0406 15.0273 10.3216 15.1735 10.0997C15.2441 9.99245 15.2741 9.86013 15.2402 9.80548C15.2034 9.74628 15.2138 9.72789 15.2659 9.76002C15.3708 9.82452 15.4773 9.58813 15.3998 9.46318C15.3695 9.41441 15.384 9.39909 15.4324 9.42882C15.4804 9.45838 15.5419 9.42493 15.5691 9.35447C15.6016 9.27034 15.5832 9.24426 15.5155 9.27829C15.4587 9.30685 15.4826 9.27332 15.5684 9.20376C15.6606 9.12916 15.7035 9.02318 15.6734 8.94493C15.6426 8.86503 15.6564 8.83341 15.7082 8.86528C15.8452 8.94949 16.0364 8.73777 16.0378 8.50046C16.0387 8.34968 16.0607 8.31681 16.1094 8.39331C16.167 8.48365 16.1883 8.48167 16.2265 8.38272C16.2522 8.31615 16.2293 8.21232 16.1757 8.15204C16.0968 8.06344 16.1024 8.06046 16.205 8.13655C16.3059 8.21149 16.3886 8.18135 16.61 7.989Z" fill="#292B2E"/>
<path fill-rule="evenodd" clip-rule="evenodd" d="M31.9741 5.26991C32.2487 5.31793 32.5623 5.40015 32.671 5.45264C32.7797 5.50505 32.9295 5.54853 33.0039 5.54919C33.0783 5.54985 33.1289 5.59978 33.1163 5.66006C33.1038 5.72042 33.1275 5.74882 33.169 5.72332C33.2721 5.6599 33.6938 5.99971 33.6332 6.09733C33.6064 6.1403 33.6325 6.16531 33.691 6.15281C33.7496 6.14031 33.7992 6.17665 33.8013 6.23354C33.8034 6.29051 33.8334 6.32777 33.8682 6.31634C33.9606 6.28603 34.275 6.83004 34.2181 6.92162C34.1914 6.96443 34.2002 6.99945 34.2375 6.99945C34.6825 6.99945 34.6527 10.6135 34.2063 10.784C34.1463 10.8069 34.1194 10.8613 34.1464 10.9047C34.2073 11.0028 34.0199 11.4707 33.9198 11.4707C33.8795 11.4707 33.8466 11.5301 33.8466 11.6028C33.8466 11.8516 32.9782 12.917 32.8431 12.8339C32.8096 12.8133 32.7607 12.8521 32.7344 12.9202C32.7082 12.9883 32.6294 13.0439 32.5592 13.0439C32.4891 13.0439 32.4318 13.0851 32.4318 13.1356C32.4318 13.186 32.3756 13.2058 32.307 13.1795C32.2383 13.1534 32.1821 13.1617 32.1821 13.1982C32.1821 13.2936 31.1316 13.6086 30.6425 13.6598C30.4136 13.6836 29.5429 13.707 28.7075 13.7116L27.1886 13.72V14.032C27.1886 14.2036 27.1537 14.452 27.1109 14.5841C27.0681 14.7161 27.0128 14.9918 26.9879 15.1967C26.9354 15.6284 26.8198 16.3509 26.6896 17.0597C26.6394 17.333 26.5793 17.687 26.5558 17.8463C26.4868 18.3147 26.3368 18.8733 26.25 18.9849C26.1936 19.0575 25.8718 19.0884 25.1725 19.0884H24.1755L24.2224 18.6123C24.2482 18.3504 24.31 17.9126 24.3599 17.6393C24.4098 17.3661 24.4843 16.9376 24.5255 16.6871C24.5667 16.4367 24.6376 16.0268 24.683 15.7763C24.8021 15.1201 25.0049 13.9228 25.1108 13.2509C25.1611 12.9321 25.2372 12.5366 25.28 12.3719C25.3227 12.2072 25.3577 11.9693 25.3577 11.8433C25.3577 11.7173 25.3922 11.4794 25.4343 11.3147C25.4765 11.15 25.5541 10.7545 25.6068 10.4357C25.7053 9.83893 25.809 9.25386 25.9442 8.53126C26.0775 7.81868 26.2815 6.56797 26.3613 5.97396C26.4034 5.66039 26.4811 5.35204 26.534 5.2887C26.6121 5.19497 27.0809 5.17436 29.0524 5.17808C30.3846 5.18057 31.6994 5.22188 31.9741 5.26991ZM28.2327 7.84493C28.2114 7.82382 28.2447 7.70872 28.3068 7.58924L28.4194 7.37205L30.0671 7.41949C31.2195 7.4527 31.7244 7.49625 31.7472 7.5644C31.7652 7.61797 31.8328 7.66185 31.8973 7.66185C31.962 7.66185 32.0928 7.82704 32.1882 8.02883C32.4131 8.50477 32.3805 9.47436 32.117 10.1459C32.0188 10.3963 31.9371 10.5683 31.9354 10.528C31.9338 10.4877 31.849 10.5622 31.7469 10.6936C31.4681 11.0528 31.3749 11.1368 31.3182 11.0804C31.2899 11.0521 31.2667 11.0726 31.2667 11.1257C31.2667 11.1788 31.2386 11.2164 31.2042 11.2091C31.1699 11.2019 31.0856 11.2172 31.017 11.2432C30.499 11.4393 30.1415 11.4862 28.9028 11.5205C27.763 11.5521 27.5126 11.5393 27.5832 11.453C27.6637 11.3545 27.8403 10.4815 28.0235 9.27647C28.0651 9.00323 28.1378 8.57804 28.1852 8.33155C28.2326 8.08513 28.2539 7.86613 28.2327 7.84493Z" fill="#292B2E"/>
<path fill-rule="evenodd" clip-rule="evenodd" d="M63.0933 5.46763C63.0895 5.60425 63.0248 6.05138 62.9495 6.46124C62.8744 6.8711 62.7906 7.35549 62.7633 7.53765C62.736 7.71981 62.6622 8.12968 62.5991 8.44846C62.4075 9.41789 62.278 10.3904 62.3332 10.4453C62.3619 10.4739 62.9395 10.4934 63.6167 10.4887C64.9311 10.4795 65.9893 10.6091 66.6861 10.8647C67.2379 11.067 67.5728 11.2888 67.501 11.4043C67.4671 11.4588 67.4816 11.473 67.5367 11.4392C67.728 11.3216 68.3525 12.27 68.5115 12.9197C68.6235 13.3774 68.6504 15.2232 68.5518 15.6935C68.4092 16.3743 68.3813 16.4462 68.2829 16.3857C68.2303 16.3534 68.2168 16.3689 68.2503 16.4228C68.3324 16.5549 67.9319 17.3017 67.5694 17.6925C67.2771 18.0077 66.4628 18.5916 66.3156 18.5916C66.2777 18.5916 66.1234 18.6527 65.9727 18.7276C65.3721 19.0257 64.6135 19.0882 61.5916 19.0883C59.3502 19.0884 58.6479 19.0642 58.5816 18.9846C58.5228 18.9141 58.5212 18.748 58.5767 18.4671C58.6215 18.2396 58.6949 17.8484 58.7396 17.5979C58.7844 17.3475 58.8569 16.9836 58.9008 16.7895C58.9447 16.5952 58.9806 16.3387 58.9806 16.2195C58.9806 16.1002 59.0152 15.8678 59.0573 15.7031C59.0995 15.5384 59.177 15.1429 59.2297 14.8241C59.2824 14.5053 59.3624 14.0396 59.4076 13.7891C59.4528 13.5386 59.5233 13.1474 59.5642 12.9197C59.6052 12.692 59.6808 12.2635 59.7322 11.9675C59.7835 11.6715 59.8583 11.2616 59.8985 11.0567C59.9387 10.8518 59.9954 10.5256 60.0244 10.3318C60.0535 10.1381 60.1021 9.99477 60.1324 10.0134C60.1626 10.032 60.1903 9.87379 60.194 9.66191C60.2 9.30644 60.3682 8.22846 60.5579 7.33065C60.6012 7.12572 60.7016 6.60407 60.781 6.17144C60.8685 5.69417 60.9766 5.34633 61.0557 5.28688C61.1416 5.22229 61.5129 5.19406 62.1432 5.20408L63.1003 5.21923L63.0933 5.46763ZM61.328 15.5254C61.3603 15.5012 61.4635 15.0168 61.5574 14.4489C61.57 14.3724 61.5821 14.2993 61.5936 14.2295C61.7897 13.0412 61.8277 12.8106 61.9521 12.7469C61.9821 12.7316 62.017 12.7259 62.0604 12.7188C62.071 12.7171 62.0822 12.7153 62.0938 12.7133C62.5211 12.6383 65.0026 12.7628 65.3473 12.8765C65.5304 12.9368 65.7408 13.0552 65.8148 13.1393C65.8889 13.2234 65.9981 13.2923 66.0576 13.2923C66.1171 13.2923 66.1406 13.3173 66.1099 13.3478C66.0793 13.3783 66.1136 13.4935 66.1862 13.6037C66.5321 14.1291 66.5072 15.2465 66.1348 15.9062C65.9575 16.2203 65.7219 16.4966 65.7219 16.3904C65.7219 16.3573 65.6549 16.3905 65.5731 16.4642C65.1939 16.8056 64.812 16.8778 63.1152 16.928C62.2079 16.9549 61.3882 16.9484 61.2939 16.9134C61.1402 16.8566 61.1289 16.8091 61.1863 16.458C61.2215 16.2425 61.2546 15.9544 61.2598 15.8177C61.2651 15.6811 61.2957 15.5495 61.328 15.5254Z" fill="#292B2E"/>
<path fill-rule="evenodd" clip-rule="evenodd" d="M43.1473 5.15788C43.163 5.20474 43.2489 5.22403 43.3383 5.20076C43.4277 5.1775 43.5007 5.20002 43.5007 5.25095C43.5007 5.30187 43.5873 5.34343 43.6931 5.34343C43.7989 5.34343 43.9659 5.41795 44.0642 5.50903C44.1624 5.60011 44.3005 5.67463 44.3711 5.67463C44.4417 5.67463 44.4994 5.73052 44.4994 5.79883C44.4994 5.86714 44.5463 5.91376 44.6035 5.90234C44.6607 5.89091 44.6981 5.92825 44.6867 5.98514C44.6752 6.0421 44.6939 6.08069 44.7283 6.07108C44.8491 6.03697 45.1652 6.26153 45.1652 6.38134C45.1652 6.44808 45.2001 6.50264 45.2428 6.50264C45.2854 6.50264 45.4052 6.62113 45.5089 6.76603C45.619 6.92004 45.6473 7.00334 45.5769 6.96666C45.5107 6.93221 45.5385 6.97618 45.6387 7.06445C45.8825 7.27907 46.1432 7.75211 46.1167 7.9317C46.1049 8.01144 46.1295 8.05566 46.1712 8.02999C46.213 8.00432 46.2518 8.02278 46.2575 8.07097C46.2767 8.2321 46.2902 8.28145 46.3834 8.53126C46.6581 9.26753 46.7661 11.4378 46.5756 12.3959C46.3728 13.4161 46.3067 13.69 46.1494 14.1617C46.0581 14.435 45.9117 14.8165 45.824 15.0095C45.7363 15.2026 45.6646 15.3982 45.6646 15.4442C45.6646 15.4903 45.6365 15.5283 45.6021 15.5288C45.5678 15.5293 45.4491 15.7324 45.3383 15.9803C45.2276 16.2283 45.112 16.4158 45.0817 16.3972C45.0514 16.3785 45.0265 16.4146 45.0265 16.4773C45.0265 16.7222 43.6456 18.204 43.4475 18.1718C43.4163 18.1669 43.3575 18.222 43.3168 18.2944C43.2244 18.4586 42.6596 18.7363 42.4733 18.7091C42.3971 18.698 42.356 18.7231 42.3821 18.765C42.4081 18.8068 42.3615 18.8629 42.2784 18.8895C42.1954 18.9161 42.0526 18.9691 41.9611 19.0075C41.4789 19.2092 39.6126 19.2773 38.961 19.1168C38.5275 19.0101 37.8326 18.6651 37.7808 18.5309C37.7588 18.4737 37.7009 18.4515 37.6521 18.4814C37.5971 18.5152 37.583 18.4852 37.615 18.4024C37.6495 18.3128 37.6302 18.2826 37.5565 18.3108C37.43 18.3591 36.7844 17.6568 36.5357 17.2003C36.444 17.0319 36.2959 16.7637 36.2067 16.6043C36.1174 16.4449 35.9954 16.1469 35.9356 15.9419C35.8756 15.737 35.7946 15.4869 35.7554 15.3862C35.6722 15.1725 35.5473 13.7975 35.5728 13.3751C35.6491 12.1092 35.9987 10.3034 36.1792 10.2423C36.2243 10.227 36.2398 10.1802 36.2139 10.1383C36.1085 9.96869 37.0435 7.75285 37.2825 7.60588C37.3351 7.57358 37.342 7.59503 37.3005 7.66185C37.2556 7.73414 37.2656 7.75028 37.3306 7.71029C37.3842 7.67733 37.4074 7.61723 37.3822 7.57674C37.3161 7.47026 37.5273 7.16505 37.6672 7.16505C37.7326 7.16505 37.7621 7.14129 37.7329 7.11231C37.6706 7.05037 37.9898 6.57948 38.0749 6.60763C38.1067 6.61823 38.1401 6.59645 38.1492 6.55927C38.183 6.42141 38.5922 6.16274 38.6857 6.22029C38.7415 6.25457 38.7603 6.24397 38.7301 6.19528C38.652 6.06967 39.1661 5.69749 39.332 5.75951C39.3508 5.76654 39.3995 5.71305 39.4402 5.64068C39.4809 5.56823 39.5872 5.50903 39.6765 5.50903C39.7657 5.50903 39.8388 5.47989 39.8388 5.44428C39.8388 5.40868 39.998 5.33755 40.1925 5.28621C40.387 5.23479 40.6773 5.15348 40.8375 5.10546C41.2008 4.99666 43.1077 5.03988 43.1473 5.15788ZM40.693 7.50727C40.8543 7.4171 41.0933 7.32519 41.224 7.30299C41.563 7.24553 42.4655 7.30912 42.6431 7.40294C42.7257 7.44657 42.9244 7.53914 43.0846 7.6087C43.3769 7.73546 43.7226 8.06319 43.6865 8.17936C43.6758 8.21347 43.7046 8.24146 43.7504 8.24146C43.7962 8.24146 43.8336 8.29958 43.8336 8.37054C43.8336 8.44705 43.8727 8.47554 43.9297 8.4406C43.9892 8.404 44.0032 8.41782 43.9665 8.47686C43.9339 8.52936 43.961 8.67484 44.0267 8.8002C44.3023 9.32574 44.3503 9.51361 44.4655 10.5185C44.5361 11.1351 44.0914 13.6953 43.8997 13.7753C43.8633 13.7905 43.8336 13.8389 43.8336 13.8828C43.8336 13.9267 43.7587 14.1169 43.6672 14.3055C43.5756 14.494 43.5007 14.7118 43.5007 14.7894C43.5007 14.8671 43.4539 14.9491 43.3967 14.9718C43.3395 14.9944 43.2178 15.1562 43.1262 15.3312C42.9625 15.6443 42.1997 16.4387 42.0628 16.4387C42.0243 16.4387 42.016 16.476 42.0443 16.5215C42.0726 16.5671 42.0444 16.6043 41.9816 16.6043C41.9189 16.6043 41.7013 16.6854 41.4982 16.7844C40.9717 17.0411 39.9429 17.0397 39.441 16.7816C39.079 16.5955 38.812 16.4026 38.6426 16.2051C38.591 16.1449 38.4864 16.0269 38.4101 15.9429C38.3339 15.8589 38.2888 15.7728 38.3101 15.7516C38.3315 15.7304 38.2796 15.5875 38.195 15.4342C38.1102 15.2808 37.9961 15.002 37.9412 14.8145C37.8209 14.4037 37.8092 12.6291 37.9231 12.075C37.9681 11.8565 38.0278 11.5659 38.0559 11.4293C38.0839 11.2927 38.1264 11.078 38.1502 10.9522C38.1741 10.8264 38.2267 10.703 38.2671 10.6782C38.3076 10.6533 38.3408 10.5617 38.3408 10.4747C38.3408 10.3877 38.4164 10.1826 38.5088 10.0189C38.6013 9.85516 38.6552 9.68634 38.6287 9.64369C38.6023 9.60113 38.6193 9.56627 38.6667 9.56627C38.714 9.56627 38.8285 9.40084 38.921 9.19872C39.0136 8.99652 39.1275 8.80765 39.1742 8.779C39.2208 8.75026 39.2336 8.68279 39.2027 8.62905C39.1717 8.57523 39.1717 8.55361 39.2027 8.58102C39.2652 8.63608 40.0053 7.93104 40.0053 7.81653C40.0053 7.77703 40.0521 7.75393 40.1093 7.76535C40.1666 7.77678 40.2044 7.74084 40.1935 7.68553C40.1826 7.63022 40.2246 7.60439 40.2867 7.62815C40.3487 7.65183 40.5316 7.59744 40.693 7.50727ZM44.2706 17.4429C44.1386 17.5459 44.1356 17.543 44.2391 17.4116C44.3019 17.3319 44.3675 17.2667 44.3847 17.2667C44.4532 17.2667 44.4092 17.3347 44.2706 17.4429Z" fill="#292B2E"/>
<path fill-rule="evenodd" clip-rule="evenodd" d="M57.5664 5.28133C57.5671 5.40528 57.3282 6.77174 57.2444 7.12365C57.1902 7.3511 57.1468 7.37735 56.7305 7.4349C56.4804 7.46943 55.1835 7.48806 53.8485 7.4763C52.5134 7.46446 51.4028 7.47348 51.3804 7.49625C51.3581 7.51902 51.3188 7.66806 51.293 7.82745C51.2156 8.30712 50.9967 9.51055 50.9467 9.73187C50.9209 9.84572 50.8781 10.06 50.8514 10.208L50.8028 10.4771L52.1661 10.4785C53.3797 10.4798 54.6114 10.6011 55.1107 10.7685C55.4213 10.8726 55.8181 11.094 55.8181 11.1632C55.8181 11.2011 55.8555 11.209 55.9013 11.1809C55.9471 11.1527 55.9845 11.1628 55.9845 11.2034C55.9845 11.244 56.0773 11.3265 56.1907 11.3869C56.3041 11.4473 56.4934 11.6803 56.6112 11.9046C56.7922 12.2488 56.8087 12.3341 56.7172 12.4505C56.6206 12.5733 56.6244 12.5763 56.751 12.4777C56.8758 12.3804 56.8996 12.3925 56.946 12.5765C56.9751 12.6917 56.9708 12.8312 56.9366 12.8864C56.8969 12.9502 56.9092 12.9652 56.9703 12.9276C57.0232 12.8951 57.0693 12.8987 57.0729 12.9355C57.0764 12.9724 57.1 13.077 57.1255 13.1681C57.2279 13.535 57.1896 15.6525 57.0745 15.9833C56.8632 16.5903 56.5675 17.175 56.3581 17.3998C56.2442 17.5221 56.151 17.6539 56.151 17.6928C56.151 17.7318 56.0886 17.7635 56.0122 17.7635C55.936 17.7635 55.8979 17.7877 55.9276 17.8173C55.9572 17.8469 55.8793 17.9585 55.7542 18.0656C55.536 18.2523 55.441 18.2939 55.2918 18.2681C55.254 18.2616 55.2436 18.2892 55.2686 18.3293C55.3078 18.3926 55.0577 18.5371 54.3545 18.8572C54.2589 18.9007 54.1279 18.9273 54.0632 18.9165C53.9985 18.9055 53.8706 18.9305 53.7791 18.9718C53.6875 19.0132 52.1707 19.047 50.4084 19.047H47.2042L47.2097 18.633C47.2144 18.2775 47.3232 17.6099 47.8372 14.7827C47.953 14.1457 48.0815 13.4069 48.1613 12.9197C48.1986 12.692 48.2713 12.2635 48.323 11.9675C48.3746 11.6715 48.4519 11.2244 48.4948 10.9739C48.5377 10.7234 48.6505 10.09 48.7457 9.56627C49.0144 8.08728 49.0674 7.77893 49.3167 6.24563C49.4133 5.65137 49.4789 5.43914 49.6136 5.28447C49.7428 5.13618 57.5656 5.13303 57.5664 5.28133ZM50.315 13.3184C50.3502 13.0822 50.4201 12.8399 50.4702 12.7799C50.5641 12.6672 51.4368 12.6571 52.9884 12.7504C53.8628 12.803 53.9148 12.8128 54.1619 12.9703C54.2718 13.0403 54.4272 13.1217 54.5073 13.151C54.5874 13.1803 54.6529 13.2613 54.6529 13.3311C54.6529 13.4009 54.6952 13.4486 54.7469 13.4372C54.8569 13.4129 54.8949 13.5996 54.9575 14.4733C55.0074 15.1691 54.8861 15.7566 54.6381 16.0215C54.5602 16.1046 54.5192 16.1953 54.547 16.223C54.5747 16.2505 54.5468 16.2731 54.4849 16.2731C54.423 16.2731 54.2951 16.3414 54.2005 16.4247C53.8085 16.7708 53.1992 16.8805 51.4698 16.9163C50.1189 16.9444 49.8184 16.93 49.7819 16.8352C49.7429 16.7341 49.9056 15.6227 50.1671 14.2031C50.2132 13.9526 50.2798 13.5545 50.315 13.3184Z" fill="#292B2E"/>
<path d="M80.9807 5.48833C80.9565 5.65915 80.884 6.06744 80.8195 6.39566C80.7551 6.72389 80.7023 7.0695 80.7023 7.16364C80.7023 7.47464 80.3901 7.50511 77.353 7.49062C75.7576 7.483 74.4417 7.49054 74.429 7.50727C74.4076 7.53509 74.2572 8.559 74.1569 9.35927C74.134 9.54143 74.0808 9.82088 74.0387 9.98027C73.9966 10.1397 73.9619 10.3725 73.9616 10.4978L73.9611 10.7255H76.9104H79.8596L79.8156 11.036C79.7914 11.2068 79.7154 11.6259 79.6466 11.9675C79.5779 12.309 79.5126 12.6417 79.5016 12.7068C79.4905 12.7719 79.4097 12.8531 79.3221 12.8873C79.0864 12.9792 73.814 12.9762 73.7808 12.8841C73.718 12.7098 73.458 13.0447 73.4243 13.3432C73.4044 13.5202 73.3091 14.112 73.2124 14.6585C72.9427 16.1849 72.8736 16.694 72.9251 16.7768C72.9524 16.8207 74.3236 16.8527 76.1764 16.8527C78.2913 16.8527 79.3631 16.8809 79.3291 16.9355C79.3008 16.9811 79.3109 17.0183 79.3514 17.0183C79.4245 17.0183 79.4034 17.1972 79.1854 18.426L79.0752 19.047L74.691 19.0658L70.3068 19.0845L70.3418 18.569C70.3611 18.2854 70.4123 17.8857 70.4558 17.6807C70.5289 17.3354 70.6736 16.5052 71.0039 14.5343C71.0764 14.1017 71.1559 13.6546 71.1804 13.5407C71.2255 13.3319 71.3369 12.6888 71.4601 11.9261C71.4969 11.6984 71.5852 11.1954 71.6564 10.8083C71.8157 9.9421 71.8671 9.63028 71.9299 9.15227C71.9568 8.94733 72.011 8.66788 72.0503 8.53126C72.0896 8.39464 72.1408 8.11519 72.1643 7.91025C72.1877 7.70532 72.2446 7.33272 72.2907 7.08225C72.3367 6.83177 72.4161 6.3493 72.4672 6.01006C72.5262 5.61684 72.6101 5.35519 72.6987 5.2882C72.8065 5.20664 73.7549 5.18246 76.9312 5.18048L81.0248 5.17783L80.9807 5.48833Z" fill="#292B2E"/>
<path d="M76.7445 1.77555C76.7702 1.81695 76.7536 2.03124 76.7075 2.25165C76.6614 2.47207 76.5756 2.91323 76.5169 3.23201L76.4099 3.81162H75.5392H74.6685L74.6858 3.60461C74.6953 3.49076 74.7439 3.15542 74.7938 2.85941C74.8436 2.56339 74.9053 2.18152 74.9309 2.0107L74.9773 1.7002H75.8375C76.3106 1.7002 76.7188 1.73406 76.7445 1.77555Z" fill="#292B2E"/>
<path d="M80.0349 1.8451C80.034 1.92483 79.9929 2.23219 79.9437 2.5282C79.8944 2.82422 79.8297 3.23408 79.7997 3.43901L79.7453 3.81162H78.8714H77.9975L78.0118 3.52181C78.0195 3.36242 78.0461 3.13886 78.0707 3.02501C78.0952 2.91116 78.1381 2.64031 78.1658 2.42313C78.1936 2.20594 78.2459 2.04638 78.2822 2.06865C78.3184 2.09093 78.3304 2.01715 78.3087 1.90471L78.2694 1.7002H79.153C79.9396 1.7002 80.0364 1.71609 80.0349 1.8451Z" fill="#292B2E"/>
<path fill-rule="evenodd" clip-rule="evenodd" d="M88.7226 5.29292C89.1458 5.35817 89.4913 5.45496 89.5327 5.51988C89.5724 5.58223 89.6054 5.6007 89.6062 5.56103C89.6068 5.52129 89.6707 5.53992 89.7482 5.60244C89.8443 5.67994 89.8691 5.68308 89.8265 5.61237C89.7497 5.48535 90.3279 5.80595 90.5827 6.03183C90.6843 6.12184 90.7441 6.23313 90.7155 6.27908C90.687 6.32504 90.7027 6.33861 90.7503 6.30939C90.7979 6.28007 90.8832 6.31154 90.9398 6.37935C90.9964 6.44716 91.0122 6.50264 90.9749 6.50264C90.9377 6.50264 90.9762 6.5529 91.0607 6.61426C91.1573 6.68456 91.1893 6.76595 91.1469 6.8341C91.1051 6.90133 91.1125 6.92211 91.1664 6.88899C91.214 6.85968 91.2756 6.9005 91.3031 6.97966C91.5517 7.69307 91.6025 7.95481 91.6036 8.52895C91.6048 9.18779 91.336 10.3115 91.1771 10.3115C91.1377 10.3115 91.1055 10.367 91.1055 10.435C91.1055 10.5029 91.0306 10.605 90.939 10.6619C90.8475 10.7188 90.7726 10.7979 90.7726 10.8378C90.7726 10.9707 90.1647 11.4661 89.8916 11.5558C89.6724 11.6278 89.4482 11.8636 89.543 11.9225C89.5556 11.9303 89.7501 12.0554 89.9753 12.2005C90.2006 12.3456 90.5875 12.4568 90.4518 12.4643C90.3161 12.4718 90.7118 12.9804 90.7572 12.981C90.747 12.9928 90.808 13.0832 90.8929 13.1818C91.1439 13.4735 91.2696 13.9556 91.267 14.6171C91.2649 15.1739 91.234 15.4099 91.0732 16.1003C90.9152 16.7778 90.2265 17.7465 89.4846 18.3345C89.2253 18.5401 88.6791 18.77 88.5591 18.7241C88.4949 18.6996 88.4423 18.7094 88.4423 18.7459C88.4423 18.7824 88.0771 18.8768 87.6308 18.9558C86.9405 19.0779 86.3845 19.0955 83.9065 19.0731L80.9936 19.047L81.0027 18.84C81.0105 18.6616 81.1373 17.885 81.4586 16.0454C81.6428 14.9917 81.6928 14.6936 81.8169 13.9133C81.8893 13.4579 81.9842 12.9176 82.0278 12.7127C82.0713 12.5078 82.1479 12.0793 82.1979 11.7605C82.248 11.4417 82.3242 10.9946 82.3672 10.7669C82.4103 10.5392 82.4648 10.2225 82.4883 10.0631C82.5287 9.78992 82.6092 9.32267 82.7805 8.36566C83.0229 7.01137 83.2232 5.84131 83.2589 5.57163C83.2813 5.40106 83.3333 5.28215 83.3743 5.30741C83.4152 5.33258 83.4488 5.31909 83.4488 5.27744C83.4488 5.14951 87.8753 5.16251 88.7226 5.29292ZM85.1116 7.73083C85.1125 7.60944 85.1506 7.49766 85.1962 7.48242C85.3229 7.44028 88.3761 7.48839 88.5782 7.53575C88.6759 7.5586 88.8726 7.68603 89.0155 7.81876C89.248 8.03479 89.2808 8.12545 89.3279 8.6798C89.3763 9.24889 89.361 9.34072 89.1404 9.80548C89.0084 10.0838 88.8651 10.3115 88.8223 10.3115C88.7794 10.3115 88.667 10.3784 88.5724 10.4601C88.2468 10.742 87.8472 10.8037 86.2368 10.8215L84.6555 10.8388L84.6643 10.5958C84.6733 10.3471 84.7645 9.7842 84.9851 8.61406C85.0538 8.24974 85.1108 7.85229 85.1116 7.73083ZM84.032 14.1617C84.1746 13.2671 84.1881 13.2243 84.3435 13.1815C84.4236 13.1594 85.1819 13.1424 86.0287 13.1438C87.3618 13.1458 87.6298 13.1684 88.0261 13.313C88.5457 13.5025 88.7103 13.6097 88.6445 13.7157C88.6195 13.7561 88.6334 13.7891 88.6756 13.7891C88.7178 13.7891 88.8177 13.9957 88.8975 14.2482C89.0482 14.7248 89.0199 15.3732 88.8388 15.592C88.7907 15.6501 88.7744 15.7204 88.8025 15.7483C88.8305 15.7762 88.7773 15.9054 88.6842 16.0355C88.5911 16.1656 88.5419 16.3153 88.5747 16.3682C88.6121 16.4285 88.5981 16.442 88.5368 16.4043C88.4831 16.3713 88.3079 16.4251 88.1473 16.5238C87.6 16.8603 87.0928 16.9336 85.3005 16.9346L83.6152 16.9355V16.5668C83.6152 16.364 83.6488 16.1125 83.6898 16.0079C83.76 15.829 83.8051 15.5853 84.032 14.1617Z" fill="#292B2E"/>
<path fill-rule="evenodd" clip-rule="evenodd" d="M96.8392 5.2535C96.9221 5.30575 96.9386 5.40611 96.8968 5.60417C96.8645 5.75678 96.8045 6.06794 96.7634 6.29564C96.7224 6.52334 96.608 7.15677 96.5093 7.70325C96.4106 8.24974 96.3131 8.82727 96.2925 8.98667C96.2721 9.14606 96.1985 9.51394 96.1291 9.80416C96.0597 10.0944 96.0339 10.3622 96.0717 10.3994C96.1096 10.4366 96.7224 10.4744 97.4335 10.4834C98.1446 10.4924 99.0247 10.5499 99.3893 10.6113C100.457 10.7908 101.373 11.1759 101.472 11.4869C101.498 11.5672 101.545 11.6244 101.576 11.6139C101.608 11.6034 101.633 11.6212 101.633 11.6534C101.633 11.6856 101.705 11.7638 101.792 11.8272C101.892 11.9 101.925 11.9821 101.883 12.0505C101.842 12.117 101.849 12.1386 101.901 12.1064C102.004 12.043 102.368 13.0986 102.288 13.2281C102.253 13.2844 102.271 13.2938 102.337 13.2532C102.421 13.2018 102.435 13.4496 102.407 14.4617C102.378 15.4979 102.337 15.8258 102.192 16.2229C102.093 16.4913 101.955 16.7737 101.885 16.8504C101.815 16.9272 101.758 17.0376 101.758 17.0958C101.758 17.4081 100.452 18.5851 100.246 18.4584C100.194 18.4264 100.173 18.4355 100.2 18.4784C100.246 18.5523 100.134 18.613 99.5528 18.829C99.4155 18.88 99.1045 18.9365 98.8616 18.9545C98.6188 18.9724 98.3971 19.01 98.3692 19.0378C98.3412 19.0656 97.0111 19.0884 95.4134 19.0884C92.9204 19.0884 92.4904 19.0705 92.3814 18.962C92.3116 18.8925 92.2746 18.7834 92.2992 18.7195C92.324 18.6556 92.4048 18.2373 92.4789 17.79C92.5531 17.3428 92.6464 16.8652 92.6864 16.7285C92.7263 16.5919 92.7756 16.3311 92.7961 16.1489C92.8633 15.5492 93.1095 14.1664 93.1942 13.9133C93.2398 13.7767 93.2897 13.4972 93.3051 13.2923C93.3292 12.97 93.4163 12.4559 93.7681 10.5599C93.8061 10.3549 93.9229 9.69594 94.0275 9.09538C94.1322 8.49491 94.2385 8.01624 94.2637 8.03181C94.289 8.04737 94.3152 7.88658 94.322 7.67469C94.3288 7.46272 94.3719 7.10295 94.4178 6.87524C94.4638 6.64754 94.5446 6.2203 94.5974 5.92586C94.6503 5.63142 94.7335 5.34269 94.7822 5.28415C94.8859 5.15978 96.6488 5.13353 96.8392 5.2535ZM95.5996 12.9826C95.5996 12.8979 95.6366 12.7918 95.6819 12.7467C95.7631 12.666 96.2495 12.6667 98.0547 12.7499C99.1555 12.8006 99.3564 12.8367 99.4487 13.0009C99.4876 13.0701 99.5577 13.1267 99.6045 13.1267C99.6926 13.1267 99.9663 13.3687 99.9723 13.452C99.9742 13.478 100.044 13.7 100.128 13.9454C100.468 14.9359 99.989 16.1861 99.0951 16.6451C98.7113 16.8421 97.657 16.9461 96.307 16.9199L94.9754 16.8941L94.9901 16.5629C94.9981 16.3808 95.0397 16.0454 95.0824 15.8177C95.3946 14.1573 95.5154 13.3369 95.4691 13.1917C95.4332 13.0794 95.446 13.0421 95.5075 13.0798C95.5622 13.1135 95.5996 13.074 95.5996 12.9826Z" fill="#292B2E"/>
<path d="M108.437 5.55043C108.414 5.89927 108.291 6.70434 108.164 7.33065C108.122 7.53558 108.067 7.83366 108.042 7.99306C108.016 8.15245 107.959 8.49715 107.914 8.75896C107.87 9.02078 107.795 9.46798 107.747 9.75257C107.613 10.5552 107.53 11.0355 107.388 11.8433C107.316 12.2532 107.215 12.8493 107.165 13.1681C107.114 13.4869 107.039 13.8781 106.997 14.0375C106.955 14.1969 106.903 14.495 106.881 14.6999C106.86 14.9049 106.805 15.2775 106.76 15.5279C106.714 15.7784 106.619 16.3373 106.547 16.7699C106.476 17.2026 106.381 17.7428 106.337 17.9706C106.293 18.1983 106.236 18.5237 106.21 18.6939C106.184 18.864 106.136 18.9979 106.103 18.9912C106.071 18.9847 105.983 19.0062 105.908 19.0393C105.833 19.0722 105.364 19.0875 104.867 19.0731L103.964 19.047L103.974 18.84C103.984 18.6402 104.235 17.0883 104.422 16.0661C104.472 15.7929 104.547 15.3644 104.588 15.1139C104.629 14.8635 104.704 14.435 104.755 14.1617C104.806 13.8885 104.883 13.4413 104.926 13.1681C104.969 12.8949 105.04 12.4664 105.084 12.2159C105.128 11.9654 105.206 11.5183 105.257 11.2223C105.308 10.9263 105.383 10.4978 105.424 10.2701C105.464 10.0424 105.537 9.61388 105.587 9.31787C106.123 6.10752 106.254 5.41472 106.351 5.29002C106.4 5.22676 106.763 5.19919 107.441 5.20722L108.458 5.21923L108.437 5.55043Z" fill="#292B2E"/>
<path d="M123.391 5.57113C123.387 5.78741 123.321 6.27726 123.243 6.65955C123.129 7.21904 123.067 7.36725 122.926 7.41933C122.829 7.45485 121.525 7.48432 120.027 7.48474C118.53 7.48515 117.287 7.50312 117.265 7.52465C117.243 7.54626 117.216 7.61382 117.204 7.67493C117.157 7.9081 117.065 8.47048 116.98 9.02807C116.932 9.34685 116.859 9.75671 116.817 9.93887C116.776 10.121 116.724 10.4005 116.7 10.5599C116.658 10.8531 116.561 11.4097 116.402 12.278C116.354 12.5398 116.279 12.9777 116.236 13.2509C116.194 13.5241 116.122 13.9526 116.078 14.2031C116.033 14.4536 115.923 15.087 115.832 15.6107C115.588 17.0131 115.579 17.0616 115.387 18.0695C115.29 18.5794 115.18 18.9777 115.142 18.9547C115.105 18.9318 115.074 18.9542 115.074 19.0047C115.074 19.068 114.771 19.0888 114.096 19.0717L113.118 19.047L113.125 18.633C113.131 18.195 113.147 18.0891 113.61 15.4865C113.772 14.5757 113.95 13.5603 114.007 13.2302C114.063 12.9001 114.141 12.6299 114.18 12.6299C114.22 12.6299 114.231 12.5957 114.205 12.554C114.151 12.4682 114.298 11.432 114.576 9.93887C114.626 9.66563 114.703 9.21851 114.747 8.94526C114.791 8.67202 114.858 8.26216 114.897 8.03446C114.904 7.99612 114.912 7.94477 114.923 7.88295C114.941 7.77994 114.963 7.64785 114.989 7.49852C115.012 7.36184 115.037 7.21071 115.064 7.05417L115.102 6.82929C115.12 6.72202 115.139 6.61424 115.157 6.50869C115.26 5.8972 115.387 5.34897 115.438 5.29052C115.512 5.20681 116.369 5.18346 119.464 5.18097L123.397 5.17783L123.391 5.57113Z" fill="#292B2E"/>
<path fill-rule="evenodd" clip-rule="evenodd" d="M143.197 5.26742C143.745 5.35693 144.285 5.55059 144.377 5.69077C144.404 5.73168 144.55 5.82864 144.702 5.90623C144.855 5.98381 145.076 6.17557 145.195 6.33248C145.313 6.48931 145.354 6.58635 145.285 6.54801C145.216 6.50968 145.244 6.55977 145.347 6.6593C145.45 6.75882 145.535 6.90588 145.535 6.98611C145.535 7.06635 145.567 7.16737 145.606 7.21059C145.724 7.33984 145.868 8.23078 145.865 8.81419C145.863 9.36655 145.616 10.6447 145.475 10.8309C145.433 10.8868 145.348 11.0908 145.287 11.2844C145.225 11.478 145.144 11.6363 145.105 11.6363C145.067 11.6363 145.035 11.6933 145.035 11.7631C145.035 11.8329 144.979 11.9113 144.911 11.9374C144.842 11.9635 144.804 12.013 144.825 12.0474C144.847 12.0818 144.716 12.2735 144.535 12.4735C144.354 12.6734 144.205 12.8107 144.204 12.7788C144.203 12.7468 144.102 12.8133 143.98 12.9267C143.857 13.0399 143.705 13.1131 143.642 13.0892C143.58 13.0653 143.552 13.0829 143.58 13.1283C143.608 13.1736 143.563 13.2324 143.48 13.259C143.397 13.2856 143.253 13.3433 143.159 13.3873C143.066 13.4312 142.854 13.4745 142.689 13.4832C142.524 13.4921 142.403 13.5226 142.42 13.551C142.479 13.6465 141.674 13.7037 140.165 13.7113C139.34 13.7154 138.615 13.7067 138.555 13.6919C138.479 13.6731 138.435 13.7906 138.411 14.0789C138.392 14.3066 138.341 14.6606 138.298 14.8655C138.254 15.0705 138.178 15.5176 138.127 15.8591C138.023 16.5664 137.928 17.1135 137.8 17.7491C137.751 17.9918 137.711 18.3013 137.711 18.4371C137.711 18.573 137.679 18.6644 137.64 18.6403C137.601 18.6162 137.588 18.6941 137.611 18.8134C137.638 18.9553 137.621 19.0112 137.563 18.9751C137.514 18.9449 137.45 18.958 137.421 19.0042C137.335 19.1427 135.588 19.1125 135.47 18.9705C135.371 18.8526 135.427 18.2604 135.536 18.2604C135.565 18.2604 135.592 18.102 135.595 17.9084C135.598 17.7149 135.647 17.3144 135.703 17.0183C135.758 16.7223 135.838 16.2752 135.88 16.0247C136.076 14.8466 136.133 14.5111 136.288 13.6235C136.379 13.0998 136.513 12.3546 136.584 11.9675C136.761 11.0126 137.02 9.47925 137.199 8.32426C137.245 8.02825 137.341 7.46934 137.414 7.08225C137.486 6.69515 137.586 6.15488 137.636 5.88164C137.686 5.60839 137.741 5.3383 137.758 5.28133C137.799 5.14711 142.39 5.13535 143.197 5.26742ZM139.584 7.45485L140.416 7.41345C140.874 7.39068 141.634 7.40194 142.106 7.43846C143.129 7.51778 143.308 7.62931 143.507 8.30952C143.663 8.84408 143.616 9.45118 143.377 10.0082C143.285 10.2206 143.237 10.3954 143.27 10.3968C143.302 10.3982 143.264 10.4372 143.183 10.4837C143.103 10.5302 143.038 10.6244 143.038 10.6931C143.038 10.7618 143.005 10.7981 142.966 10.7737C142.926 10.7492 142.81 10.8376 142.708 10.9701C142.601 11.1087 142.473 11.192 142.406 11.1663C142.341 11.1418 142.289 11.163 142.289 11.2134C142.289 11.2638 142.211 11.3051 142.117 11.3051C142.022 11.3051 141.875 11.3423 141.79 11.3876C141.705 11.433 140.998 11.4901 140.219 11.5145L138.803 11.5587L138.882 11.287C138.926 11.1376 138.996 10.8104 139.039 10.5599C139.082 10.3094 139.196 9.65834 139.293 9.1131C139.39 8.56777 139.451 8.05541 139.43 7.97443C139.409 7.89345 139.423 7.8465 139.461 7.87018C139.5 7.89378 139.543 7.80998 139.558 7.68396L139.584 7.45485Z" fill="#292B2E"/>
<path fill-rule="evenodd" clip-rule="evenodd" d="M131.031 5.15324C131.049 5.20714 131.121 5.22958 131.191 5.203C131.428 5.11241 132.402 5.695 132.989 6.27899C133.3 6.58867 133.535 6.87358 133.511 6.91209C133.488 6.95059 133.524 7.00342 133.592 7.02959C133.661 7.05567 133.717 7.13408 133.717 7.20388C133.717 7.2736 133.756 7.33065 133.805 7.33065C133.853 7.33065 133.87 7.36791 133.841 7.41345C133.813 7.45899 133.824 7.49625 133.866 7.49625C134.048 7.49625 134.445 8.77652 134.56 9.73187C134.65 10.4871 134.589 12.2939 134.454 12.8369C134.133 14.1282 133.959 14.6459 133.624 15.3002C133.584 15.38 133.517 15.5103 133.476 15.59C133.435 15.6698 133.317 15.912 133.213 16.1282C133.11 16.3445 132.993 16.5215 132.955 16.5215C132.916 16.5215 132.884 16.5584 132.884 16.6034C132.884 16.7102 132.682 16.964 132.21 17.4512C131.999 17.6685 131.842 17.8463 131.862 17.8463C131.882 17.8463 131.787 17.9395 131.651 18.0534C131.515 18.1672 131.38 18.2604 131.35 18.2604C131.32 18.2604 131.216 18.3349 131.118 18.426C131.019 18.517 130.871 18.5916 130.788 18.5916C130.705 18.5916 130.637 18.6328 130.637 18.6832C130.637 18.7336 130.579 18.7527 130.508 18.7255C130.437 18.6985 130.401 18.711 130.427 18.7536C130.475 18.8312 130.172 18.9442 129.472 19.11C128.958 19.2316 127.123 19.2401 127.083 19.1211C127.067 19.0708 126.965 19.0464 126.857 19.0668C126.75 19.0872 126.637 19.0632 126.606 19.0133C126.575 18.9635 126.484 18.9228 126.404 18.9228C126.323 18.9228 126.184 18.8576 126.093 18.7779C126.003 18.6981 125.874 18.6215 125.807 18.6074C125.74 18.5934 125.592 18.4927 125.477 18.3836C124.723 17.6647 124.684 17.6147 124.721 17.4055C124.727 17.3679 124.7 17.357 124.661 17.3811C124.585 17.428 124.063 16.5208 124.062 16.3398C124.062 16.2803 124.009 16.1309 123.944 16.0077C123.584 15.3205 123.457 13.3503 123.685 11.9675C123.816 11.1703 124.027 10.2679 124.14 10.0217C124.182 9.93059 124.24 9.7481 124.269 9.6162C124.298 9.48422 124.451 9.11177 124.608 8.78844C124.766 8.46518 124.895 8.15394 124.895 8.09681C124.895 8.03976 124.932 7.99306 124.978 7.99306C125.024 7.99306 125.061 7.936 125.061 7.86629C125.061 7.79649 125.117 7.71808 125.186 7.69199C125.254 7.66583 125.289 7.61118 125.264 7.57036C125.239 7.52962 125.258 7.49625 125.306 7.49625C125.354 7.49625 125.394 7.44707 125.394 7.38696C125.394 7.24495 125.777 6.91334 125.858 6.98546C125.892 7.01593 125.894 6.99564 125.862 6.94033C125.801 6.83368 126.095 6.48277 126.178 6.56474C126.204 6.59132 126.226 6.56781 126.226 6.5125C126.226 6.38838 126.646 6.01204 126.788 6.00848C126.845 6.00699 126.892 5.97106 126.892 5.92858C126.892 5.84752 127.217 5.7114 127.335 5.74311C127.373 5.75321 127.384 5.72879 127.359 5.68879C127.308 5.60682 128.346 5.17849 128.6 5.17658C128.691 5.17584 128.821 5.13709 128.89 5.09039C129.068 4.96917 130.989 5.02548 131.031 5.15324ZM128.582 7.522C128.728 7.44508 128.998 7.3545 129.181 7.32055C130.105 7.14957 130.844 7.38132 131.553 8.06426C131.759 8.26274 131.881 8.40077 131.825 8.37087C131.763 8.33817 131.779 8.41468 131.864 8.56223C131.942 8.69744 132.027 8.79506 132.053 8.77925C132.079 8.76335 132.104 8.81287 132.11 8.88921C132.115 8.96563 132.18 9.28889 132.253 9.60767C132.541 10.8715 132.359 12.5274 131.774 13.9444C131.654 14.2348 131.576 14.5049 131.601 14.5447C131.626 14.5846 131.607 14.6171 131.56 14.6171C131.468 14.6171 131.174 15.1124 131.203 15.2174C131.212 15.2515 131.182 15.2795 131.137 15.2795C131.091 15.2795 131.053 15.3314 131.053 15.3949C131.053 15.4583 130.995 15.5326 130.923 15.5599C130.852 15.5872 130.816 15.6471 130.845 15.693C130.873 15.7388 130.855 15.7763 130.804 15.7763C130.753 15.7763 130.734 15.8145 130.763 15.8612C130.792 15.9078 130.78 15.9358 130.736 15.9233C130.692 15.9108 130.586 15.9751 130.501 16.0661C129.851 16.7604 128.78 17.1213 127.932 16.9315C127.704 16.8803 127.432 16.8323 127.329 16.8248C127.226 16.8175 127.142 16.7858 127.142 16.7548C127.142 16.7237 126.979 16.5374 126.78 16.3408C126.581 16.1441 126.394 15.9158 126.364 15.8332C126.333 15.746 126.27 15.7079 126.214 15.7425C126.155 15.7786 126.14 15.7658 126.175 15.7097C126.206 15.659 126.198 15.5508 126.156 15.4692C125.75 14.6815 125.64 13.499 125.852 12.2159C125.952 11.6104 126.081 11.0062 126.16 10.7669C126.359 10.1697 126.889 9.04214 127.005 8.96721C127.058 8.93376 127.077 8.90585 127.049 8.90511C127.021 8.90444 127.124 8.77047 127.278 8.60735C127.433 8.44432 127.54 8.27922 127.516 8.24047C127.492 8.2018 127.516 8.14318 127.569 8.11022C127.635 8.06998 127.646 8.08861 127.603 8.16652C127.567 8.23053 127.631 8.18043 127.745 8.05516C127.859 7.92988 127.997 7.82745 128.051 7.82745C128.106 7.82745 128.127 7.79019 128.099 7.74465C128.071 7.69911 128.108 7.66185 128.181 7.66185C128.255 7.66185 128.435 7.59893 128.582 7.522Z" fill="#292B2E"/>
<path fill-rule="evenodd" clip-rule="evenodd" d="M150.33 5.62065C150.303 5.85531 150.246 6.25217 150.204 6.50264C150.162 6.75311 150.089 7.19296 150.042 7.48011C149.927 8.1835 149.711 9.34693 149.599 9.86576C149.549 10.0988 149.523 10.3336 149.541 10.3876C149.565 10.458 149.962 10.4859 150.946 10.4864C151.7 10.4868 152.505 10.5227 152.734 10.5663C153.629 10.7371 154.024 10.8372 154.024 10.894C154.024 10.9265 154.138 10.976 154.279 11.0039C154.419 11.0319 154.511 11.092 154.482 11.1376C154.454 11.1831 154.481 11.2011 154.543 11.1776C154.7 11.1176 155.433 11.9225 155.493 12.2205C155.52 12.3546 155.57 12.4643 155.605 12.4643C155.639 12.4643 155.695 12.5854 155.73 12.7334C155.764 12.8814 155.809 13.0584 155.83 13.1267C155.925 13.4398 155.89 15.5101 155.782 15.9005C155.615 16.507 155.496 16.7643 155.408 16.7097C155.365 16.6832 155.355 16.7023 155.386 16.7521C155.448 16.8529 155.256 17.1911 154.939 17.5386C154.473 18.0487 154.248 18.2634 154.215 18.2301C154.196 18.2108 154.092 18.2762 153.984 18.3754C153.742 18.5986 152.748 18.9566 152.529 18.8996C152.44 18.8765 152.353 18.9002 152.335 18.9522C152.297 19.0655 145.971 19.1447 145.867 19.0332C145.798 18.958 145.918 18.0957 146.16 16.9355C146.215 16.6678 146.445 15.2864 146.532 14.6999C146.569 14.4494 146.62 14.1886 146.644 14.1203C146.669 14.052 146.71 13.8471 146.734 13.6649C146.758 13.4827 146.851 12.9238 146.94 12.4229C147.286 10.4686 147.628 8.51039 147.697 8.07586C147.895 6.83956 148.188 5.35792 148.257 5.23728C148.277 5.20168 148.764 5.17742 149.337 5.18338L150.381 5.19414L150.33 5.62065ZM149.03 13.1941C149.03 13.0504 149.083 12.8739 149.149 12.802C149.246 12.6946 149.45 12.6741 150.293 12.687C151.818 12.7104 152.438 12.7827 152.858 12.9866C153.064 13.0864 153.246 13.1967 153.261 13.2317C153.277 13.2666 153.334 13.3412 153.389 13.3973C153.734 13.7504 153.789 14.9715 153.49 15.6434C153.38 15.8916 153.305 16.1162 153.324 16.1426C153.342 16.1688 153.336 16.1745 153.308 16.1551C153.281 16.1357 153.152 16.2144 153.022 16.3301C152.666 16.6456 152.424 16.7472 151.801 16.8426C151.004 16.9648 148.638 16.9759 148.496 16.8583C148.414 16.7907 148.401 16.6809 148.449 16.4571C148.486 16.2876 148.559 15.8881 148.612 15.5693C148.715 14.9487 148.825 14.3766 148.952 13.8086C148.995 13.6144 149.03 13.3379 149.03 13.1941Z" fill="#292B2E"/>
<path d="M161.92 5.25277C161.999 5.30278 162.019 5.41083 161.983 5.60334C161.954 5.75644 161.895 6.1052 161.852 6.37844C161.809 6.65168 161.734 7.08953 161.685 7.35135C161.426 8.75126 161.401 8.89443 161.188 10.1873C161.143 10.4605 161.028 11.1312 160.931 11.6777C160.835 12.2242 160.719 12.8949 160.674 13.1681C160.629 13.4413 160.559 13.8512 160.518 14.0789C160.478 14.3066 160.405 14.7351 160.356 15.0311C160.307 15.3271 160.233 15.7556 160.191 15.9833C160.149 16.211 160.017 16.9562 159.897 17.6393C159.777 18.3225 159.663 18.928 159.642 18.9849C159.615 19.0604 159.318 19.088 158.541 19.0871C157.824 19.0862 157.518 19.0597 157.602 19.0056C157.709 18.9368 157.707 18.9251 157.583 18.924C157.418 18.9226 157.414 18.9647 157.76 17.1011C157.886 16.4235 158.158 14.827 158.268 14.1203C158.321 13.7788 158.398 13.3445 158.44 13.1553C158.482 12.9662 158.536 12.6681 158.562 12.4929C158.586 12.3178 158.663 11.8578 158.732 11.4707C158.801 11.0836 158.894 10.5433 158.941 10.2701C158.987 9.99683 159.059 9.58697 159.101 9.35927C159.144 9.13157 159.219 8.68444 159.27 8.36566C159.32 8.04688 159.395 7.61838 159.435 7.41345C159.476 7.20852 159.572 6.66824 159.65 6.21284C159.727 5.75743 159.826 5.3383 159.871 5.28133C159.967 5.16003 161.734 5.13535 161.92 5.25277Z" fill="#292B2E"/>
<path fill-rule="evenodd" clip-rule="evenodd" d="M99.2636 25.0309C99.2339 25.313 99.1631 25.5732 99.106 25.6093C99.049 25.6453 99.037 25.6752 99.0793 25.676C99.1217 25.6767 99.0745 25.7638 98.9745 25.8697C98.8746 25.9755 98.8131 26.0822 98.8377 26.1068C98.8624 26.1314 98.7037 26.2274 98.4848 26.3202C98.1906 26.445 97.8053 26.5043 97.005 26.5482C95.421 26.6351 95.3747 26.6399 94.966 26.7589C94.6002 26.8653 93.7239 27.5928 93.7196 27.7937C93.7185 27.8421 93.6521 27.9538 93.572 28.0421C93.4204 28.2092 93.3186 28.6159 93.4414 28.5637C93.48 28.5473 93.733 28.4239 94.0035 28.2894C94.6946 27.9461 95.3675 27.8374 96.0479 27.9596C96.6869 28.0742 96.8958 28.1519 96.8338 28.2518C96.8088 28.292 96.841 28.3048 96.9054 28.2802C97.0295 28.2329 97.7541 28.7358 97.7541 28.8693C97.7541 28.9125 97.8374 29.0307 97.9392 29.1321C98.041 29.2334 98.1492 29.4197 98.1795 29.5461C98.2099 29.6725 98.2712 29.822 98.3158 29.8783C98.3604 29.9347 98.3761 30.0347 98.3506 30.1007C98.3251 30.1666 98.3454 30.2342 98.3957 30.2509C98.5426 30.2996 98.5935 31.6401 98.4519 31.7293C98.387 31.7702 98.3773 31.8025 98.4298 31.8032C98.5797 31.8052 98.3505 32.6328 98.0111 33.3145C97.7167 33.906 96.9985 34.7853 96.81 34.7853C96.757 34.7853 96.7138 34.8248 96.7138 34.873C96.7138 34.9212 96.6812 34.9407 96.6413 34.9162C96.6016 34.8917 96.4612 34.964 96.3292 35.0768C96.1135 35.2614 95.9612 35.3208 95.7775 35.2919C95.7432 35.2865 95.715 35.3143 95.715 35.3535C95.715 35.4637 94.8374 35.6133 94.1913 35.6133C93.5469 35.6133 92.487 35.3417 92.4163 35.1583C92.3921 35.0956 92.322 35.0634 92.2607 35.0868C92.1994 35.1102 92.1075 35.0519 92.0566 34.9574C92.0057 34.8627 91.907 34.7853 91.8373 34.7853C91.7675 34.7853 91.7301 34.7537 91.7541 34.715C91.7782 34.6764 91.7054 34.5955 91.5926 34.5354C91.4797 34.4753 91.3873 34.3765 91.3873 34.3159C91.3873 34.2553 91.3543 34.2057 91.3139 34.2057C91.2735 34.2057 91.1372 33.9959 91.0112 33.7395C90.8146 33.3399 90.776 33.1402 90.7406 32.3434C90.7152 31.7719 90.7376 31.2417 90.7986 30.9674C90.9627 30.23 91.2255 29.3817 91.3946 29.0435C91.4821 28.8685 91.5538 28.6729 91.5538 28.6088C91.5538 28.5448 91.5913 28.4925 91.637 28.4925C91.6828 28.4925 91.7203 28.4392 91.7203 28.3741C91.7203 28.3091 91.7857 28.1906 91.8659 28.111C91.946 28.0313 91.9966 27.9635 91.9785 27.9601C91.9098 27.9479 92.068 27.5816 92.142 27.5816C92.1846 27.5816 92.2196 27.5246 92.2196 27.4549C92.2196 27.3851 92.2755 27.3067 92.3439 27.2806C92.4123 27.2544 92.4476 27.1998 92.4223 27.159C92.397 27.1182 92.4159 27.0848 92.4644 27.0848C92.5128 27.0848 92.5525 27.0454 92.5525 26.9972C92.5525 26.7647 93.9345 25.5101 94.2136 25.4891C94.3071 25.4822 94.3835 25.4514 94.3835 25.4209C94.3835 25.2739 96.0639 25.021 97.0649 25.0175C97.7735 25.0149 97.7951 25.0089 97.9753 24.7664C98.1496 24.5318 98.1921 24.518 98.7387 24.518H99.3174L99.2636 25.0309ZM92.8407 31.2336C93.1581 30.3385 93.4438 29.941 94.0461 29.5566C94.4444 29.3024 94.9908 29.2441 95.5312 29.3983C95.8312 29.4839 96.3182 29.8521 96.2375 29.9323C96.2096 29.9601 96.2278 29.9829 96.2781 29.9829C96.3285 29.9829 96.3936 30.058 96.4229 30.1497C96.4521 30.2415 96.5026 30.3002 96.5351 30.2802C96.6249 30.225 96.5772 31.9631 96.4835 32.1657C96.263 32.6421 96.1791 32.8466 96.1733 32.9223C96.1698 32.9678 96.0652 33.113 95.9409 33.2449C95.8167 33.3768 95.715 33.5102 95.715 33.5414C95.715 33.5726 95.6227 33.6473 95.5098 33.7074C95.397 33.7675 95.3278 33.8541 95.3563 33.8998C95.3846 33.9455 95.3713 33.9605 95.3266 33.933C95.2819 33.9055 95.1408 33.9369 95.013 34.0029C94.694 34.1676 93.9383 34.156 93.6095 33.9815C93.463 33.9037 93.3182 33.8385 93.2877 33.8366C93.177 33.8296 92.8854 33.4314 92.8854 33.2871C92.8854 33.2057 92.8479 33.1161 92.8022 33.0879C92.6731 33.0085 92.7018 31.6252 92.8407 31.2336Z" fill="#05AE49"/>
<path d="M84.4729 27.9501C84.5097 27.9727 84.5631 28.2251 84.5914 28.5109C84.6622 29.2217 84.8971 31.0695 85.0628 32.2185C85.1121 32.56 85.1743 33.0165 85.2011 33.2328C85.2279 33.4491 85.2737 33.6261 85.3029 33.6261C85.3465 33.6261 85.9089 32.523 85.9362 32.3841C85.9751 32.1861 86.0865 31.9701 86.1498 31.9701C86.1925 31.9701 86.2274 31.8933 86.2274 31.7996C86.2274 31.6918 86.2628 31.6508 86.3235 31.6882C86.3823 31.7243 86.397 31.7109 86.3614 31.6535C86.3005 31.5556 86.6762 30.8141 86.8402 30.7086C86.8922 30.6752 86.9073 30.6473 86.8737 30.6465C86.7823 30.6446 87.1469 29.9829 87.2394 29.9829C87.2833 29.9829 87.296 29.9456 87.2677 29.9001C87.2394 29.8545 87.2622 29.8173 87.3183 29.8173C87.3744 29.8173 87.3961 29.7931 87.3663 29.7636C87.3021 29.6997 87.7215 28.8931 87.867 28.8008C87.9227 28.7655 87.947 28.6816 87.9211 28.6145C87.8952 28.5474 87.9085 28.4925 87.9507 28.4925C87.9928 28.4925 88.0776 28.3649 88.1391 28.209C88.2722 27.8716 88.2896 27.8662 89.3275 27.8383C89.9869 27.8207 90.148 27.8399 90.187 27.9411C90.2305 28.0539 90.105 28.3896 89.9808 28.4925C89.9107 28.5506 89.5994 29.123 89.3848 29.5884C89.2833 29.8084 89.1661 29.9574 89.1176 29.9276C89.0699 29.8983 89.0561 29.9143 89.0866 29.9634C89.117 30.0124 89.0826 30.1112 89.0103 30.1832C88.9379 30.2552 88.9095 30.3152 88.9471 30.3167C88.9846 30.3181 88.9427 30.374 88.8539 30.4409C88.765 30.5077 88.7206 30.5625 88.755 30.5625C88.8274 30.5625 88.3813 31.4179 88.2872 31.4595C88.2529 31.4747 88.2248 31.538 88.2248 31.6003C88.2248 31.6625 88.1593 31.7514 88.0792 31.7979C87.999 31.8443 87.964 31.8834 88.0013 31.8848C88.0921 31.8881 87.7148 32.5497 87.622 32.5497C87.582 32.5497 87.5689 32.5815 87.5931 32.6204C87.6173 32.6592 87.5346 32.8549 87.4094 33.0551C87.2844 33.2553 87.1076 33.577 87.0168 33.7701C86.9259 33.9631 86.8235 34.1214 86.7892 34.122C86.7549 34.1225 86.7267 34.177 86.7267 34.243C86.7267 34.309 86.6613 34.401 86.5811 34.4475C86.501 34.4939 86.4645 34.533 86.5001 34.5344C86.5973 34.5382 86.3197 35.0337 86.2203 35.0337C86.1731 35.0337 86.1577 35.0713 86.1863 35.1173C86.2148 35.1632 86.1328 35.3589 86.0039 35.552C85.8751 35.7451 85.7136 36.0149 85.645 36.1515C85.5763 36.2882 85.5007 36.4186 85.4768 36.4413C85.4529 36.4641 85.3882 36.5852 85.3328 36.7104C85.2776 36.8357 85.194 36.9381 85.1472 36.9381C85.1005 36.9381 85.0622 37.0105 85.0622 37.099C85.0622 37.1875 84.979 37.3179 84.8772 37.3888C84.7755 37.4597 84.7288 37.519 84.7732 37.5205C84.8177 37.5221 84.6707 37.6885 84.4464 37.8904C84.2221 38.0922 84.0068 38.2378 83.9678 38.2139C83.929 38.1899 83.8971 38.2161 83.8971 38.2719C83.8971 38.3277 83.8725 38.3488 83.8423 38.3188C83.8122 38.2889 83.7413 38.3026 83.6847 38.3493C83.4289 38.5606 81.8214 38.5381 81.5406 38.3193C81.4329 38.2354 81.4288 38.1349 81.5118 37.6108L81.6084 37.0001L82.191 36.9678C82.9616 36.9251 82.9812 36.9217 82.9314 36.8415C82.9079 36.8036 82.9228 36.7725 82.9646 36.7725C83.0628 36.7725 83.4402 36.425 83.4593 36.3171C83.4816 36.1901 83.8484 35.6181 83.9092 35.6156C83.9386 35.6143 83.929 35.4736 83.8875 35.3028C83.8151 35.0039 83.7247 34.5247 83.4383 32.9223C83.365 32.5124 83.2654 31.9722 83.217 31.7217C83.1686 31.4712 83.1184 31.0943 83.1058 30.8841C83.0931 30.6739 83.0461 30.4317 83.0014 30.3459C82.9568 30.2601 82.8956 29.9663 82.8654 29.6931C82.8352 29.4198 82.756 28.9385 82.6894 28.6235C82.6094 28.2451 82.5961 28.0174 82.6499 27.9529C82.7296 27.8572 84.318 27.8549 84.4729 27.9501Z" fill="#05AE49"/>
<path d="M81.3518 28.2441C81.348 28.449 81.2971 28.8216 81.2387 29.0721C81.1802 29.3225 81.0991 29.6858 81.0583 29.8794C80.8912 30.6732 80.8306 30.9658 80.7026 31.5975C80.6288 31.9618 80.4964 32.5766 80.4086 32.9637C80.3207 33.3508 80.2052 33.8911 80.152 34.1643C79.9844 35.025 79.8867 35.3534 79.7889 35.3844C79.7368 35.4009 79.3647 35.425 78.9618 35.4378C78.1871 35.4624 77.9459 35.3792 78.0297 35.1164C78.0959 34.909 78.3229 33.8993 78.4112 33.4191C78.4532 33.1914 78.5267 32.8188 78.5745 32.5911C78.6224 32.3634 78.6956 32.0094 78.7372 31.8045C78.7787 31.5996 78.8534 31.2456 78.9031 31.0179C78.9528 30.7902 79.0285 30.3922 79.0714 30.1337L79.0758 30.1069L79.095 29.9916L79.098 29.973L79.1012 29.9543L79.1181 29.8523L79.12 29.841L79.1236 29.8194C79.1431 29.7023 79.1575 29.6165 79.1612 29.5955C79.205 29.3432 79.1369 29.3302 77.8602 29.3459C76.4704 29.363 76.4109 29.3822 76.4081 29.8114C76.4075 29.922 76.3717 30.1269 76.3287 30.2668C76.2858 30.4066 76.1329 31.0986 75.9891 31.8045C75.5521 33.9489 75.409 34.4541 75.2389 34.4541C75.1893 34.4541 75.1717 34.4912 75.1998 34.5366C75.2281 34.5819 75.1499 34.7123 75.0262 34.8264C74.9025 34.9404 74.8342 35.0337 74.8744 35.0337C74.9145 35.0337 74.817 35.1208 74.6576 35.2273C74.099 35.6006 73.0724 35.7206 72.3288 35.4994C71.9094 35.3747 71.914 35.3915 72.0672 34.5576L72.1775 33.9573H72.734C73.7608 33.9573 73.8322 33.8154 74.589 30.2727C74.7657 29.4452 74.8337 29.1056 74.9042 28.6995C74.9436 28.4718 75.0162 28.1827 75.0653 28.0572L75.1548 27.8289L78.2568 27.8502L81.3587 27.8715L81.3518 28.2441Z" fill="#05AE49"/>
<path d="M68.3003 27.9345C68.3454 27.9793 68.2675 28.5065 68.0953 29.3205C68.052 29.5254 67.9778 29.898 67.9306 30.1485C67.8833 30.3989 67.8199 30.7205 67.7897 30.863C67.737 31.1113 67.7471 31.1235 68.0344 31.1568C68.1992 31.1759 68.334 31.163 68.334 31.1281C68.334 31.0931 68.3964 31.0883 68.4725 31.1173C68.5656 31.1529 68.5913 31.1385 68.5508 31.0734C68.5177 31.02 68.5343 30.9765 68.5876 30.9765C68.6913 30.9765 68.9101 30.7277 69.256 30.2163C69.374 30.0419 69.5017 29.9273 69.5398 29.9617C69.5779 29.9961 69.5827 29.9786 69.5504 29.9226C69.5009 29.8371 69.8891 29.1307 70.1697 28.7953C70.2139 28.7426 70.3279 28.5963 70.4229 28.4701C70.518 28.344 70.7049 28.1846 70.8383 28.116C71.1289 27.9665 72.4019 27.8244 72.5785 27.9218C72.6512 27.9619 72.6618 27.9917 72.6041 27.9932C72.5495 27.9945 72.5185 28.0661 72.5351 28.1522C72.567 28.3168 72.4252 28.9902 72.3382 29.0876C72.3101 29.119 72.1878 29.1577 72.0663 29.1736C71.8371 29.2036 71.4134 29.4753 71.4134 29.5923C71.4134 29.725 70.5873 30.8736 70.4557 30.9238C70.3785 30.9533 70.3467 31.017 70.3814 31.0728C70.4226 31.1392 70.3964 31.1529 70.2991 31.1157C70.2201 31.0855 70.1775 31.0952 70.2037 31.1374C70.2637 31.2339 69.9264 31.4733 69.7303 31.4733C69.649 31.4733 69.5824 31.5292 69.5824 31.5975C69.5824 31.6658 69.6221 31.7217 69.6705 31.7217C69.719 31.7217 69.732 31.7648 69.6993 31.8173C69.6602 31.8803 69.6768 31.8903 69.7478 31.8466C69.8764 31.7675 70.4147 32.347 70.4147 32.5646C70.4147 32.6421 70.4478 32.7259 70.4883 32.7508C70.5288 32.7757 70.5808 32.899 70.6038 33.0248C70.6268 33.1506 70.7821 33.7116 70.9488 34.2716C71.1156 34.8315 71.2322 35.3217 71.2079 35.3608C71.1549 35.4461 70.4534 35.4653 69.8635 35.3975C69.4589 35.351 69.4327 35.3331 69.3492 35.0462C68.7631 33.0309 68.6666 32.6807 68.6745 32.5985C68.6786 32.5571 68.6215 32.4896 68.5478 32.4485C68.4741 32.4075 68.4317 32.3452 68.4535 32.31C68.4753 32.2749 68.448 32.2426 68.3928 32.2384C68.3376 32.2341 68.1523 32.2045 67.981 32.1725C67.6131 32.1036 67.4186 32.2252 67.4186 32.5239C67.4186 32.6352 67.3852 32.7889 67.3443 32.8657C67.3035 32.9423 67.2483 33.1355 67.2217 33.2949C67.1522 33.7114 67.0175 34.427 66.9137 34.9302C66.8395 35.2901 66.7928 35.3663 66.6427 35.3725C65.6525 35.4142 64.9915 35.4102 64.9618 35.3624C64.942 35.3305 64.9822 35.0479 65.0511 34.7343C65.12 34.4208 65.2126 33.978 65.257 33.7503C65.3012 33.5226 65.3774 33.1686 65.4262 32.9637C65.4749 32.7588 65.5453 32.4234 65.5825 32.2185C65.6197 32.0136 65.7341 31.4547 65.8366 30.9765C65.9391 30.4983 66.0562 29.9488 66.0966 29.7552C66.1371 29.5616 66.2097 29.2262 66.2581 29.01C66.3063 28.7937 66.3666 28.4959 66.3919 28.3482C66.4172 28.2006 66.4709 28.1001 66.5112 28.1248C66.5515 28.1496 66.5633 28.1153 66.5376 28.0486C66.5092 27.9747 66.5478 27.9164 66.6364 27.8994C66.8725 27.8541 68.2486 27.8831 68.3003 27.9345Z" fill="#05AE49"/>
<path d="M57.8381 27.7631C58.1409 27.8174 58.4074 27.8862 58.4303 27.916C58.4532 27.9458 58.5668 27.9933 58.6829 28.0214C58.9359 28.0829 59.7793 28.8699 59.9521 29.2057C60.0198 29.3371 60.1008 29.5984 60.1321 29.7863L60.1891 30.1279L59.8715 30.1896C59.6968 30.2236 59.285 30.2644 58.9565 30.2802L58.3592 30.3091L58.3052 30.0646C58.2755 29.9301 58.2546 29.8002 58.2587 29.7761C58.2726 29.6947 57.7235 29.1778 57.6604 29.2128C57.6261 29.2319 57.5981 29.2173 57.5982 29.1805C57.5984 29.0806 56.5898 29.1463 56.3497 29.2618C56.0788 29.3921 55.4349 29.9965 55.4345 30.1209C55.4343 30.174 55.4053 30.2299 55.37 30.2451C55.3117 30.2702 55.0857 30.98 54.8573 31.8555C54.7452 32.2854 54.7416 33.1031 54.8516 33.1707C54.8974 33.1989 54.9348 33.3136 54.9348 33.4258C54.9348 33.5786 55.0329 33.6916 55.3257 33.8763C56.1271 34.3821 56.9758 34.0809 57.5642 33.0823C57.7827 32.7112 57.7928 32.7054 58.1292 32.7548C59.3584 32.9352 59.5677 32.988 59.5677 33.1178C59.5677 33.3374 59.0119 34.2148 58.9117 34.1533C58.8616 34.1225 58.8419 34.1314 58.8678 34.1732C58.8937 34.2148 58.862 34.3209 58.7974 34.4087C58.7328 34.4967 58.6799 34.5345 58.6799 34.493C58.6799 34.4513 58.6216 34.5001 58.5504 34.6013C58.4791 34.7025 58.3681 34.7853 58.3036 34.7853C58.2392 34.7853 58.1448 34.8627 58.0939 34.9574C58.043 35.0519 57.9511 35.1102 57.8898 35.0868C57.8285 35.0634 57.7602 35.0909 57.7383 35.1478C57.6732 35.3167 56.8556 35.5464 56.1556 35.5925C55.4938 35.636 55.0106 35.5482 54.6019 35.3103C54.4875 35.2436 54.3284 35.1684 54.2482 35.1432C54.1681 35.1179 54.1026 35.0643 54.1026 35.024C54.1026 34.9839 54.0655 34.9509 54.0203 34.9509C53.8962 34.9509 53.6061 34.6821 53.6514 34.6091C53.6732 34.5739 53.6167 34.5056 53.5257 34.4572C53.3196 34.3474 53.0685 33.8372 53.1353 33.6639C53.1628 33.5928 53.1512 33.5556 53.1097 33.5812C52.8957 33.7127 52.8523 31.9456 53.0478 31.0593C53.1939 30.3965 53.5391 29.6602 53.8606 29.3254C53.9937 29.1869 54.1026 29.032 54.1026 28.9811C54.1026 28.9303 54.1607 28.9109 54.2317 28.9381C54.3028 28.9652 54.3401 28.9539 54.3147 28.9131C54.2202 28.7609 54.7519 28.4197 55.9072 27.8911C56.0073 27.8453 56.1664 27.828 56.2609 27.8527C56.3555 27.8772 56.4329 27.8657 56.4329 27.8271C56.4329 27.7884 56.592 27.7425 56.7866 27.7251C56.9812 27.7077 57.1734 27.6869 57.2139 27.6789C57.2544 27.671 57.5353 27.7088 57.8381 27.7631Z" fill="#05AE49"/>
<path fill-rule="evenodd" clip-rule="evenodd" d="M49.1855 27.7579C49.4868 27.8093 49.8769 27.9235 50.0525 28.0116C50.4748 28.2236 51.2729 29.0242 51.2729 29.2358C51.2729 29.3279 51.3063 29.4033 51.3471 29.4033C51.5363 29.4033 51.6934 31.8895 51.5174 32.1005C51.4362 32.1979 50.9786 32.2185 48.901 32.2185C46.8961 32.2185 46.3642 32.2411 46.2903 32.3296C46.2394 32.3907 46.2139 32.4569 46.2337 32.4767C46.2536 32.4964 46.279 32.6886 46.2902 32.9038C46.3014 33.1189 46.341 33.2949 46.3782 33.2949C46.4154 33.2949 46.4459 33.35 46.4459 33.4172C46.4459 33.4844 46.6337 33.6871 46.8633 33.8677C47.4142 34.301 47.8674 34.3766 48.4554 34.1335C48.6877 34.0375 48.9121 33.9799 48.9539 34.0057C48.9957 34.0313 49.0198 34.0217 49.0074 33.9841C48.995 33.9466 49.0921 33.7762 49.2233 33.6054C49.4965 33.2497 49.7082 33.2186 50.6506 33.3965C51.1226 33.4856 51.1827 33.5177 51.1383 33.6569C51.0586 33.9066 50.343 34.7853 50.2193 34.7853C50.158 34.7853 50.1078 34.8266 50.1078 34.877C50.1078 34.9274 50.059 34.95 49.9994 34.9272C49.9398 34.9046 49.811 34.9686 49.7131 35.0698C49.1802 35.6207 46.8436 35.8004 46.4439 35.3212C46.3925 35.2596 46.2973 35.2295 46.2324 35.2542C46.1675 35.2791 46.0914 35.2397 46.0634 35.167C46.0353 35.0943 45.9807 35.0541 45.942 35.0779C45.8325 35.1453 44.8519 34.1098 44.902 33.9798C44.9262 33.9172 44.9089 33.8887 44.8637 33.9165C44.8184 33.9443 44.7814 33.8935 44.7814 33.8035C44.7814 33.7135 44.7443 33.6275 44.6991 33.6123C44.548 33.5616 44.4299 32.6012 44.4717 31.7631C44.5105 30.9844 44.7265 30.0657 44.8708 30.0657C44.906 30.0657 44.9782 29.9353 45.0311 29.7759C45.0839 29.6165 45.164 29.4861 45.2089 29.4861C45.2538 29.4861 45.2686 29.4507 45.2417 29.4074C45.2148 29.3642 45.2684 29.2885 45.3608 29.2393C45.4532 29.1901 45.5198 29.1044 45.5088 29.0489C45.4978 28.9933 45.5384 28.9581 45.599 28.9706C45.6597 28.9831 45.689 28.9608 45.6642 28.921C45.6145 28.8408 45.9089 28.5618 46.2099 28.4039C46.3168 28.3479 46.423 28.2797 46.4459 28.2523C46.5612 28.1142 47.3871 27.8117 47.5819 27.8362C47.6665 27.8468 47.792 27.8341 47.8607 27.8079C48.3001 27.6405 48.4618 27.6344 49.1855 27.7579ZM47.6943 29.216C47.7629 29.1896 47.8753 29.1493 47.9439 29.1265C48.2149 29.0366 48.8075 29.0791 49.0804 29.2079C49.4914 29.4019 49.7449 29.7809 49.8614 30.3756L49.871 30.4241C49.9235 30.6907 49.9566 30.8583 49.89 30.9637C49.7772 31.1424 49.3782 31.1423 48.3032 31.1421L48.1875 31.1421C46.3715 31.1421 46.3507 31.1334 46.6245 30.4857C46.8993 29.8357 47.0181 29.6094 47.0713 29.6353C47.0995 29.6489 47.1972 29.5659 47.2884 29.4506C47.3796 29.3352 47.4801 29.246 47.5118 29.2524C47.5435 29.2588 47.6256 29.2424 47.6943 29.216Z" fill="#05AE49"/>
<path fill-rule="evenodd" clip-rule="evenodd" d="M14.6111 6.89595C14.5076 7.02727 14.5105 7.03017 14.6425 6.92725C14.7812 6.81903 14.8252 6.75104 14.7567 6.75104C14.7395 6.75104 14.6739 6.81621 14.6111 6.89595ZM44.2391 17.4116C44.1356 17.543 44.1386 17.5459 44.2706 17.4429C44.4092 17.3347 44.4532 17.2667 44.3847 17.2667C44.3675 17.2667 44.3019 17.3319 44.2391 17.4116Z" fill="#292B2E"/>
<path fill-rule="evenodd" clip-rule="evenodd" d="M8.32886 24.9257C8.32886 25.0195 8.19961 25.6538 7.99021 26.588C7.57983 28.4182 7.5795 28.4209 7.77283 28.3599C7.86837 28.3297 8.00095 28.2509 8.06744 28.1848C8.23107 28.022 8.58144 27.8963 8.72201 27.9499C8.78518 27.974 8.81656 27.9611 8.79176 27.9212C8.65269 27.6973 10.2289 27.745 10.4566 27.9716C10.5222 28.0369 10.5759 28.0665 10.5759 28.0373C10.5759 28.0082 10.6887 28.0643 10.8266 28.1619C10.9644 28.2596 11.0523 28.3797 11.0218 28.4288C10.991 28.4784 11.0049 28.4944 11.053 28.4648C11.1587 28.3998 11.3483 28.6072 11.2618 28.6933C11.2279 28.727 11.2518 28.7423 11.3151 28.727C11.4386 28.6974 11.7753 29.2832 11.8722 29.6965C12.0047 30.2617 12.0048 31.4644 11.8724 32.1013C11.6926 32.9659 11.1201 34.1398 10.9571 33.9778C10.9257 33.9465 10.9207 33.9757 10.9459 34.0426C11.0131 34.2204 10.0515 35.1621 9.89881 35.0682C9.85862 35.0434 9.80327 35.0815 9.7758 35.1527C9.74834 35.2238 9.67369 35.2821 9.60994 35.2821C9.54619 35.2821 9.494 35.3134 9.494 35.3517C9.494 35.4814 8.62056 35.6323 8.14693 35.5843C7.67895 35.5368 6.99726 35.2517 6.99726 35.1033C6.99726 35.0596 6.95981 35.047 6.91403 35.0751C6.86826 35.1033 6.83081 35.067 6.83081 34.9946C6.83081 34.9222 6.76522 34.8389 6.68516 34.8095C6.6051 34.78 6.51073 34.716 6.47552 34.6672C6.37382 34.526 6.16501 34.8633 6.16501 35.1688C6.16501 35.3169 6.12756 35.461 6.08178 35.4891C6.03601 35.5173 5.99814 35.6965 5.99764 35.8873C5.99714 36.0782 5.94429 36.4062 5.88021 36.6163C5.81613 36.8264 5.7369 37.2176 5.70411 37.4857C5.67132 37.7538 5.59209 38.0756 5.52809 38.2009C5.4129 38.4262 5.403 38.4286 4.58648 38.4286C4.13265 38.4286 3.74125 38.3963 3.71678 38.3568C3.69231 38.3174 3.72901 38.0287 3.79834 37.7151C3.86766 37.4017 3.95888 36.9402 4.00099 36.6897C4.0431 36.4393 4.13398 36.0108 4.20289 35.7375C4.27172 35.4643 4.32948 35.1967 4.33106 35.1429C4.33497 35.0136 3.92193 35.0589 3.83613 35.1971C3.79976 35.2555 3.73167 35.2797 3.68465 35.2508C3.63771 35.2219 3.58478 35.2416 3.56706 35.2945C3.52353 35.4243 2.87188 35.6108 2.46149 35.6108C1.91787 35.6108 1.01613 35.2169 1.13215 35.0301C1.17567 34.96 1.06865 34.9167 0.907106 34.9391C0.876146 34.9434 0.801409 34.836 0.741154 34.7005C0.680816 34.565 0.599171 34.4541 0.559722 34.4541C0.52019 34.4541 0.510205 34.3963 0.537502 34.3256C0.565965 34.2518 0.551984 34.2187 0.504629 34.2478C0.409586 34.3062 0.231236 33.8986 0.301977 33.7848C0.32786 33.743 0.312797 33.7089 0.268438 33.7089C0.224079 33.7089 0.160662 33.3853 0.127539 32.9899C0.0629561 32.2187 0.200444 30.9654 0.369141 30.787C0.421406 30.7319 0.474502 30.5864 0.487319 30.4639C0.512536 30.2213 0.707698 29.7974 0.766954 29.8564C0.787178 29.8765 0.809731 29.814 0.816971 29.7177C0.824295 29.6213 0.86208 29.5203 0.900863 29.4935C0.939729 29.4666 1.06224 29.3143 1.17317 29.1549C1.41236 28.8112 1.80019 28.3977 1.7168 28.5753C1.68476 28.6436 1.74268 28.5924 1.84555 28.4616C2.01741 28.243 2.54247 27.9438 2.69036 27.9803C2.72474 27.9887 2.75278 27.9615 2.75278 27.9199C2.75278 27.8782 3.03508 27.8179 3.38013 27.7857C3.92617 27.7347 4.03037 27.7473 4.185 27.8821C4.28271 27.9673 4.3353 27.9905 4.30185 27.9336C4.22961 27.8108 4.38374 27.7918 4.45973 27.9142C4.48852 27.9605 4.54386 27.9788 4.58273 27.9548C4.62168 27.9309 4.70341 27.9603 4.76425 28.0202C4.82517 28.0801 4.94293 28.1547 5.0259 28.186C5.11321 28.2189 5.15166 28.2835 5.11712 28.339C5.08275 28.3943 5.09348 28.4131 5.14233 28.383C5.18902 28.3543 5.29431 28.4045 5.37612 28.4945C5.45801 28.5845 5.55214 28.6581 5.58526 28.6581C5.6709 28.6581 5.79907 28.2831 5.91076 27.7059C6.06772 26.8951 6.17516 26.3989 6.26063 26.0912C6.30491 25.9318 6.35218 25.7083 6.36558 25.5944C6.37906 25.4806 6.41901 25.2663 6.45438 25.1183L6.51871 24.8492H7.42379C7.92189 24.8492 8.32886 24.8836 8.32886 24.9257ZM2.71176 30.0083C2.71409 29.8492 3.46086 29.3156 3.85069 29.1945C4.04785 29.1333 4.22079 29.0807 4.23494 29.0776C4.24909 29.0746 4.23993 29.1054 4.21463 29.1462C4.1577 29.2378 4.40197 29.3397 4.51365 29.271C4.55835 29.2435 4.61536 29.2989 4.64041 29.394C4.66638 29.4927 4.72655 29.5439 4.78048 29.5132C4.83249 29.4837 4.84689 29.4904 4.81243 29.5282C4.77798 29.566 4.80078 29.6557 4.86312 29.7278C5.14517 30.0537 5.24154 31.1015 5.07268 32.0065C4.98171 32.4939 4.68926 33.2253 4.56292 33.2811C4.52855 33.2963 4.50051 33.3545 4.50051 33.4104C4.50051 33.4664 4.38707 33.5956 4.2485 33.6975C4.10993 33.7995 4.01464 33.912 4.03677 33.9477C4.05891 33.9833 4.03187 34.0164 3.97669 34.0212C3.92151 34.0261 3.71761 34.0697 3.52361 34.118C3.23416 34.1903 3.1114 34.1805 2.83909 34.063C2.56178 33.9436 2.47606 33.8448 2.31794 33.4626C2.16073 33.0827 2.12935 32.8577 2.13317 32.1357C2.13742 31.317 2.1544 31.2325 2.42396 30.6867C2.58142 30.3679 2.71092 30.0626 2.71176 30.0083ZM7.55861 30.0593C7.83309 29.6578 8.2676 29.284 8.53958 29.2155C8.74898 29.1627 9.05458 29.1868 9.13023 29.2622C9.16244 29.2942 9.24816 29.3205 9.32065 29.3205C9.39314 29.3206 9.5575 29.5069 9.68609 29.7346C9.81459 29.9622 9.93851 30.1485 9.96148 30.1485C9.98437 30.1485 9.97621 30.1019 9.94333 30.045C9.91038 29.9881 9.91246 29.9675 9.94791 29.9993C9.98345 30.0311 10.0063 30.5025 9.99868 31.0469C9.98803 31.8191 9.94767 32.134 9.81517 32.4795C9.72171 32.723 9.64248 32.9689 9.63898 33.0258C9.63557 33.0828 9.59928 33.1293 9.55842 33.1293C9.51764 33.1293 9.50491 33.1627 9.53021 33.2034C9.55559 33.2442 9.52031 33.2989 9.45189 33.325C9.38348 33.3511 9.32756 33.407 9.32756 33.4492C9.32756 33.4913 9.2152 33.6455 9.07788 33.7917C8.94056 33.9379 8.82821 34.0305 8.82821 33.9973C8.82821 33.9642 8.77436 33.9815 8.70844 34.0359C8.535 34.1791 7.74978 34.1555 7.43419 33.9977C7.28538 33.9233 7.16371 33.8443 7.16371 33.8222C7.16371 33.8001 7.21056 33.8055 7.26774 33.8344C7.325 33.8632 7.31185 33.8374 7.23869 33.7771C7.16545 33.7169 7.10528 33.6489 7.10495 33.6261C7.10462 33.6033 7.04286 33.3741 6.96763 33.1165C6.89239 32.859 6.83081 32.4843 6.83081 32.2836C6.83081 31.9082 7.13966 30.5535 7.24211 30.4797C7.27365 30.4569 7.41613 30.2677 7.55861 30.0593Z" fill="#05AE49"/>
<path d="M16.4251 27.9913C16.4608 28.0239 16.4288 28.2711 16.3539 28.5406C16.279 28.8102 16.1883 29.1797 16.1523 29.3619C16.0928 29.6634 15.9974 30.1043 15.8207 30.8937C15.785 31.0531 15.6716 31.5375 15.5687 31.9701C15.2619 33.2601 15.2389 33.472 15.3739 33.7603C15.4405 33.9024 15.621 34.0862 15.7751 34.1688C16.0456 34.3138 16.0722 34.3137 16.5573 34.1675C16.8335 34.0844 17.0544 33.9937 17.0482 33.9661C17.042 33.9385 17.2053 33.7456 17.411 33.5375C17.7764 33.1678 18.0109 32.6963 18.2315 31.8873C18.2875 31.6824 18.3667 31.4291 18.4077 31.3245C18.4488 31.2199 18.4822 31.0522 18.4822 30.9519C18.482 30.5594 19.1315 27.9762 19.2489 27.9028C19.2942 27.8746 19.6551 27.845 20.0511 27.8371C20.604 27.826 20.8096 27.8536 20.9374 27.9557C21.0487 28.0447 21.0709 28.1026 21.0045 28.1304C20.9499 28.1532 20.9253 28.224 20.9498 28.2878C20.9744 28.3514 20.9349 28.6471 20.862 28.9448C20.575 30.1164 20.4796 30.5285 20.4546 30.7052C20.4402 30.8066 20.4026 30.9152 20.3708 30.9468C20.3392 30.9783 20.3133 31.0977 20.3133 31.2121C20.3133 31.3265 20.278 31.5346 20.2348 31.6744C20.154 31.936 19.8026 33.455 19.7545 33.7503C19.7396 33.8414 19.672 34.1332 19.6043 34.3987C19.5364 34.6643 19.481 34.9503 19.481 35.0345C19.481 35.347 19.2771 35.427 18.4448 35.441L17.6501 35.4543V35.1972C17.6501 35.0558 17.6891 34.8674 17.7369 34.7786C17.8053 34.6514 17.7939 34.6059 17.6833 34.5637C17.6034 34.5332 17.503 34.5605 17.4507 34.627C17.0598 35.124 15.9166 35.6133 15.1465 35.6133C14.8702 35.6133 14.6614 35.5853 14.6827 35.5512C14.7039 35.5171 14.6239 35.4833 14.5049 35.4762C14.386 35.4691 14.2454 35.4044 14.1926 35.3326C14.1398 35.2607 14.0721 35.2262 14.0423 35.2558C14.0125 35.2854 13.9882 35.2641 13.9882 35.2083C13.9882 35.1525 13.9507 35.1298 13.9049 35.1579C13.8592 35.1861 13.8217 35.1681 13.8217 35.1179C13.8217 35.0678 13.751 34.9513 13.6644 34.8588C13.2722 34.44 13.2444 33.6538 13.5723 32.2599C13.7694 31.4222 13.8707 30.9733 13.979 30.459C14.1307 29.7386 14.2382 29.2699 14.3255 28.9479C14.3749 28.7657 14.4461 28.4724 14.4837 28.2961C14.5213 28.1198 14.5966 27.9481 14.651 27.9147C14.7714 27.8407 16.3338 27.9081 16.4251 27.9913Z" fill="#05AE49"/>
<path d="M28.3445 27.8262C28.4818 27.8802 28.6034 27.9219 28.6149 27.9186C28.8239 27.8602 29.371 28.4029 29.4376 28.7348C29.4979 29.0345 29.6567 29.0625 29.8378 28.8052C29.909 28.704 29.9673 28.6564 29.9673 28.6995C29.9673 28.7425 30.0257 28.6949 30.0969 28.5937C30.1682 28.4925 30.2805 28.4097 30.3466 28.4097C30.4127 28.4097 30.4667 28.3735 30.4667 28.3293C30.4667 28.1053 32.0334 27.6227 32.4797 27.7093C32.5856 27.7299 32.7907 27.7689 32.9354 27.7962C33.0802 27.8235 33.2769 27.9182 33.3723 28.0068C33.4679 28.0953 33.546 28.143 33.546 28.113C33.546 28.0828 33.6039 28.1059 33.6747 28.1644C33.7454 28.2228 33.7833 28.3225 33.7588 28.3858C33.7309 28.4583 33.7502 28.479 33.8108 28.4418C33.8758 28.4018 33.8893 28.4288 33.8524 28.5246C33.8222 28.6027 33.8304 28.6465 33.8704 28.6219C33.9105 28.5972 33.9886 28.6315 34.044 28.6979C34.16 28.8368 34.1164 30.1414 33.9776 30.6867C33.9 30.9921 33.7968 31.472 33.4259 33.2535C33.3501 33.6178 33.2545 34.0277 33.2135 34.1643C33.1724 34.3009 33.1221 34.5245 33.1015 34.6611C33.0258 35.1641 32.9431 35.3602 32.7858 35.4099C32.6972 35.4379 32.2703 35.4489 31.837 35.4343L31.0492 35.408L31.0951 35.1174C31.1203 34.9575 31.1729 34.6777 31.2119 34.4955C31.2508 34.3134 31.3238 33.9687 31.374 33.7296C31.6096 32.6086 31.6555 32.4128 31.7245 32.2353C31.7651 32.1307 31.7983 31.9351 31.7983 31.8006C31.7983 31.6661 31.838 31.5561 31.8864 31.5561C31.9349 31.5561 31.9578 31.5281 31.9372 31.494C31.9166 31.4599 31.9347 31.2456 31.9773 31.0179C32.1612 30.035 32.2014 29.6903 32.1576 29.4723C32.1319 29.3447 32.0813 29.2586 32.045 29.2809C32.0087 29.3032 31.9632 29.2747 31.944 29.2175C31.8942 29.0693 30.7856 29.0774 30.604 29.2273C30.5285 29.2897 30.4667 29.3157 30.4667 29.285C30.4667 29.2542 30.3781 29.3242 30.2699 29.4404C30.1617 29.5566 30.0243 29.6517 29.9648 29.6517C29.9052 29.6517 29.8796 29.6748 29.908 29.703C29.9364 29.7313 29.849 29.9724 29.7138 30.2389C29.5786 30.5054 29.468 30.7803 29.468 30.8499C29.468 30.9195 29.4243 30.9765 29.3709 30.9765C29.3175 30.9765 29.2944 30.997 29.3196 31.022C29.3447 31.0471 29.3294 31.2054 29.2856 31.3739C29.204 31.687 29.1868 31.7648 28.8962 33.1293C28.8039 33.5619 28.6702 34.1319 28.599 34.3961C28.5276 34.6601 28.4693 34.9662 28.4693 35.0763C28.4693 35.1867 28.3998 35.3133 28.3141 35.359C28.1221 35.4612 26.5659 35.4491 26.5011 35.3449C26.4751 35.3032 26.4928 35.1136 26.5403 34.9237C26.5878 34.7337 26.6634 34.4106 26.7083 34.2057C26.7531 34.0008 26.8712 33.4605 26.9707 33.0051C27.0702 32.5497 27.1841 32.0467 27.2238 31.8873C27.3803 31.2598 27.5538 30.2108 27.5538 29.8929C27.5538 29.4706 27.4381 29.2536 27.1534 29.1419C26.9402 29.0582 26.2821 28.9941 26.3526 29.0639C26.4167 29.1275 25.9343 29.3298 25.8012 29.2952C25.7276 29.2761 25.6674 29.3054 25.6674 29.3604C25.6674 29.4813 25.2094 30.0657 25.1146 30.0657C25.0775 30.0657 25.0676 30.0984 25.0924 30.1385C25.1173 30.1785 25.0805 30.3251 25.0107 30.4644C24.8604 30.764 24.4745 32.2393 24.4745 32.514C24.4745 32.6193 24.4419 32.7256 24.402 32.7501C24.3621 32.7746 24.3036 32.991 24.272 33.2311C24.1505 34.1521 24.1219 34.2885 24.0496 34.2885C24.0087 34.2885 23.9828 34.3165 23.9921 34.3506C24.0014 34.3847 23.9815 34.6076 23.9478 34.8459C23.9056 35.1446 23.8374 35.3053 23.7283 35.3634C23.6412 35.4098 23.2293 35.4477 22.8128 35.4477C22.1901 35.4477 22.0465 35.4238 22.0037 35.3129C21.9567 35.191 22.0085 34.893 22.2246 34.0401C22.265 33.8807 22.3598 33.4336 22.4353 33.0465C22.5108 32.6594 22.6231 32.1005 22.6848 31.8045C22.7466 31.5085 22.8394 31.0614 22.8911 30.8109C22.9427 30.5604 23.0205 30.1972 23.0639 30.0036C23.242 29.2101 23.3029 28.9235 23.3984 28.4304L23.4985 27.9129L24.0906 27.8999C24.4162 27.8927 24.7831 27.8797 24.9059 27.8709C25.2693 27.8449 25.3333 27.9283 25.2311 28.2947C25.1148 28.7111 25.1152 28.7135 25.2834 28.7778C25.3621 28.8079 25.4008 28.8068 25.3692 28.7755C25.3378 28.7442 25.4477 28.6113 25.6135 28.4802C25.7793 28.3491 25.9335 28.2605 25.9563 28.2831C25.979 28.3057 26.0389 28.2711 26.0891 28.2059C26.1395 28.1408 26.2359 28.0762 26.3034 28.0623C26.371 28.0484 26.4767 27.9905 26.5383 27.9336C26.5999 27.8767 26.7505 27.8295 26.8731 27.8288C26.9958 27.8281 27.1415 27.7988 27.197 27.7637C27.3419 27.6721 28.0512 27.7107 28.3445 27.8262Z" fill="#05AE49"/>
<path d="M38.5165 27.9402C38.5711 27.9736 38.549 28.2029 38.4538 28.594C38.2641 29.3725 38.1453 29.9375 38.0788 30.3762L38.0255 30.7281H39.4408C40.2193 30.7281 40.9154 30.7055 40.9878 30.6778C41.0602 30.6502 41.1195 30.5477 41.1195 30.4501C41.1195 30.3525 41.1723 30.0304 41.2369 29.7345C41.3014 29.4385 41.4148 28.9189 41.4888 28.5799C41.5628 28.2409 41.6441 27.9428 41.6695 27.9175C41.695 27.8922 42.1278 27.863 42.6314 27.8527L43.547 27.8339L43.4926 28.1839C43.4626 28.3764 43.4057 28.6456 43.366 28.7823C43.3262 28.9189 43.2738 29.1611 43.2493 29.3205C43.2248 29.4799 43.1661 29.7779 43.1186 29.9829C43.0712 30.1878 43.0112 30.4859 42.9852 30.6453C42.9593 30.8047 42.8676 31.2332 42.7813 31.5975C42.6951 31.9618 42.5625 32.5766 42.4868 32.9637C42.411 33.3508 42.3149 33.8166 42.2733 33.9987C42.2318 34.1809 42.154 34.5599 42.1005 34.8411C42.0097 35.3187 41.9865 35.3553 41.7487 35.3968C41.3771 35.4616 40.2615 35.4515 40.1491 35.3823C40.0776 35.3383 40.0937 35.1306 40.2117 34.5781C40.2991 34.1684 40.4416 33.5 40.5283 33.093C40.6151 32.6858 40.6681 32.3063 40.6462 32.2494C40.5973 32.1225 38.0081 32.1027 37.7738 32.2274C37.6875 32.2733 37.624 32.4 37.624 32.526C37.624 32.6464 37.5895 32.8594 37.5474 32.9992C37.4708 33.2532 37.3063 33.99 37.1254 34.8887C37.0114 35.4551 36.9883 35.4654 35.9179 35.4307C35.178 35.4067 35.169 35.4038 35.1786 35.1993C35.1885 34.9878 35.4728 33.6015 35.6287 33.0051C35.6763 32.8229 35.7506 32.469 35.7939 32.2185C35.8681 31.7893 35.9762 31.2729 36.3837 29.4033C36.4779 28.9706 36.5754 28.5049 36.6004 28.3683C36.6905 27.8735 36.8301 27.8061 37.6746 27.8496C38.0915 27.871 38.4704 27.9118 38.5165 27.9402Z" fill="#05AE49"/>
</svg>
